<svg xmlns="http://www.w3.org/2000/svg" viewBox="0 0 141.73228 141.73228"><defs><style>.cls-1{fill:#0e1210;}.cls-2{fill:#2a3a24;}.cls-3{fill:#a4c3bc;}.cls-4{fill:#778f9b;}.cls-5{fill:#576c75;}.cls-6{fill:#327934;}.cls-7{fill:#5d876d;}.cls-8{fill:#fff;}.cls-9{fill:#bad58c;}.cls-10{fill:#64ac5d;}</style></defs><title>relic_blade</title><g id="Itens_Especiais" data-name="Itens Especiais"><path class="cls-1" d="M92.08248,33.35106a8.71176,8.71176,0,0,1,.09235-1.02736c.127-.61982.54252-.80626,1.05817-.44951a4.51155,4.51155,0,0,0,1.75571.74207,1.25848,1.25848,0,0,0,1.57291-1.03932c.05062-.094.04361-.20454.08634-.30079a8.29359,8.29359,0,0,0-.09129-2.47362,1.14733,1.14733,0,0,1,.43721-1.15537,69.593,69.593,0,0,1,6.17548-5.422,68.00836,68.00836,0,0,1,9.05013-5.92093A59.94892,59.94892,0,0,1,128.41674,10.284c.06749-.01437.13539-.0276.20368-.03722.8081-.1138,1.138.16037,1.0783.97518-.06216.84909-.16372,1.6967-.2836,2.5399a56.86405,56.86405,0,0,1-3.412,13.107c-.7388,1.85393-1.57572,3.66852-2.35672,5.50581-.61059,1.43646-1.25588,2.86133-1.78963,4.32642a9.57819,9.57819,0,0,0-.47391,4.42475,5.8055,5.8055,0,0,1-.09925,2.53481,2.18771,2.18771,0,0,1-2.08158,1.61631,1.53794,1.53794,0,0,1-1.51868-.98484,2.18993,2.18993,0,0,1-.17893-1.47736c.05926-.22193.09934-.449.14813-.67374a.08292.08292,0,0,1-.04406-.10306.51319.51319,0,0,1,.011-.05475.21732.21732,0,0,1,.00834-.02841l-.03365.03937-.04362.03438-.052-.011q-1.815,2.12936-3.63065,4.25808c-.1346.15764-.28341.30311-.41824.46056a1.06356,1.06356,0,0,1-1.03906.36945,4.62092,4.62092,0,0,0-1.57114.05668,3.84336,3.84336,0,0,0-2.90786,4.50322c.02491.13581.06116.27017.07667.407.07966.70256-.11159.91128-.80992.97547-.57047.05245-1.14125.12678-1.70333.23567a4.44685,4.44685,0,0,0-.9733.331,3.43249,3.43249,0,0,0-2.13858,4.02741c.14437.86348-.07351,1.1412-.94965,1.14736a5.70129,5.70129,0,0,0-4.297,2.02138,3.18354,3.18354,0,0,0-.884,2.52882c.01325.13764.02432.27609.02526.41423.00348.51135-.147.69935-.66592.78745-.38492.06533-.78055.07435-1.16146.15534A6.59986,6.59986,0,0,0,90.86557,66.748a11.16555,11.16555,0,0,0-2.82389,4.97837c-.07887.33363-.07534.68594-.12672,1.02707-.099.65718-.36352.85578-1.03563.78989a7.2697,7.2697,0,0,0-2.52871.213,4.40933,4.40933,0,0,0-2.45516,1.67739,8.441,8.441,0,0,0-1.65794,4.38739c-.00929.09158-.00058.1852-.01246.27627-.084.644-.3844.84647-1.02682.81222a9.7885,9.7885,0,0,0-2.05934.01665A4.84708,4.84708,0,0,0,73.06037,84.889a18.08432,18.08432,0,0,0-.32636,1.9027c-.11382.76323-.33709.9829-1.13464.995A7.69342,7.69342,0,0,0,66.969,89.51287a5.80017,5.80017,0,0,0-2.21043,4.42839c-.02354.34442-.00382.69167-.0082,1.03755-.00778.61331-.18079.78162-.7687.94963a22.42147,22.42147,0,0,0-2.74494.879,10.68807,10.68807,0,0,0-5.53044,5.80209c-.12117.2711-.02835.37559.15663.49941.74511.49878,1.45876,1.05565,2.243,1.48243,1.39033.75657,2.82323,1.43481,4.2394,2.14367.20539.10279.42434.18014.624.29251a.98983.98983,0,0,1,.348,1.5231,2.41037,2.41037,0,0,1-.26667.31683c-1.06916,1.11423-2.1348,2.23193-3.21262,3.33773-.61554.6315-.89063.69849-1.62312.20543-1.69715-1.14241-3.40577-2.27571-5.02823-3.51925-1.8991-1.45558-3.712-3.02393-5.56124-4.54456a4.38477,4.38477,0,0,1-.46572-.41171c-.21493-.23543-.36426-.162-.55682.04019-.41306.4338-.852.84278-1.27714,1.26517q-8.24046,8.18784-16.47991,16.3767-1.88815,1.87645-3.77443,3.75476c-.32781.32726-.339.35269.01988.66886a1.76322,1.76322,0,0,1,.12859,2.68119c-.62685.6756-1.26365,1.342-1.899,2.00957a3.13478,3.13478,0,0,1-.31081.27432,1.54721,1.54721,0,0,1-2.12789-.01983c-.192-.19374-.35931-.30117-.6544-.1338a5.59433,5.59433,0,0,1-7.99185-3.68257,5.44806,5.44806,0,0,1,.34538-3.904c.11781-.2406.18583-.41345-.04149-.665a1.53745,1.53745,0,0,1,.06125-2.2323c.71368-.75142,1.42966-1.50351,2.19-2.20616a2.38578,2.38578,0,0,1,1.022-.51553,1.55142,1.55142,0,0,1,1.57819.63169c.33048.37509.34034.366.694-.00679q6.06694-6.39585,12.135-12.79062,4.31064-4.53572,8.63561-9.05777c.34732-.36428.3529-.37138.01076-.75233a77.284,77.284,0,0,1-6.96738-9.007c-.39295-.59394-.76649-1.20149-1.12975-1.81418a1.0955,1.0955,0,0,1,.19852-1.65646c.92073-.93673,1.86383-1.85145,2.79905-2.77389.246-.24268.4869-.49242.74959-.716a.78729.78729,0,0,1,1.33319.16858,7.46047,7.46047,0,0,1,.563,1.10259,31.79885,31.79885,0,0,0,3.13151,5.66348c.34092.47537.34017.483.84644.18345A15.0239,15.0239,0,0,0,47.45134,77.741c.05067-.1768.08828-.35863.15412-.52957a.73029.73029,0,0,1,1.10016-.45922,3.68059,3.68059,0,0,0,1.67161.338,1.64033,1.64033,0,0,0,1.6545-1.20847,7.56041,7.56041,0,0,0,.25775-1.13819c.11405-.66.31853-.88249.99715-.883a2.08164,2.08164,0,0,0,2.18968-1.62819,12.64,12.64,0,0,0,.37834-1.67619c.09-.59046.1136-1.19134.15961-1.78818.04869-.63156.38534-.91155,1.01007-.79194.35913.06875.70335.22046,1.06335.27847a7.045,7.045,0,0,0,1.36484.11681,1.23915,1.23915,0,0,0,1.38975-1.16391c.19236-1.06162.2901-2.14062.42031-3.21315.02769-.2281.00475-.46226.03089-.69067.08278-.72362.52148-.93357,1.15885-.59306a12.48074,12.48074,0,0,0,1.48488.7025c.5463.2047.66826.14392.9344-.372a11.47525,11.47525,0,0,0,.54894-1.26123c.47167-1.26834.9265-2.543,1.38884-3.81479a6.0026,6.0026,0,0,0,.2154-.5803.723.723,0,0,1,1.25079-.31532,2.72786,2.72786,0,0,0,1.24327.70631.90128.90128,0,0,0,1.291-.64754c.20686-.58305.37907-1.17941.54424-1.77609a8.66407,8.66407,0,0,1,1.632-3.08672c.48029-.60435.71567-.6344,1.40926-.26151a4.88007,4.88007,0,0,0,.81722.35678c.54617.17451.828.06771,1.04818-.46787a5.333,5.333,0,0,0,.35776-1.32114c.1193-.91237.18316-1.83218.26189-2.74961.06979-.8131.44176-1.03257,1.20458-.70026.42.183.8366.3746,1.26251.54257a1.83874,1.83874,0,0,0,.53663.1117c.48683.035.60253-.03895.75364-.509.19659-.6115.35479-1.2357.56149-1.84353.3987-1.17248.80572-2.34258,1.23695-3.50337.262-.70531.80567-.80565,1.302-.24907a2.564,2.564,0,0,0,1.29138.87128,1.04121,1.04121,0,0,0,1.33647-.65707c.299-1.05752.52146-2.137.76477-3.20984.066-.29085.07536-.59448.14041-.88561a.78452.78452,0,0,1,1.1309-.639c.19486.0666.377.17128.57255.235a8.038,8.038,0,0,0,.92346.26067.99647.99647,0,0,0,1.23255-.63125c.25811-.65895.48578-1.33268.67687-2.014a9.22522,9.22522,0,0,0,.17991-1.22538C92.094,33.65107,92.01536,33.48472,92.08248,33.35106Z"/><path class="cls-2" d="M120.84075,53.4863a2.70036,2.70036,0,0,1-.40507,1.41107,1.73628,1.73628,0,0,1-1.75151.8442,1.77059,1.77059,0,0,1-1.52737-1.47708,4.69886,4.69886,0,0,1,.04358-1.49844,5.4801,5.4801,0,0,1,1.05682-2.2195c.47527-.63994.95356-.6524,1.45218-.05439A4.83944,4.83944,0,0,1,120.84075,53.4863Z"/><path class="cls-2" d="M125.42434,46.01672a4.29471,4.29471,0,0,1-.09617.51672,1.24448,1.24448,0,0,1-1.35691,1.02483,1.29058,1.29058,0,0,1-1.31769-1.16989,2.81038,2.81038,0,0,1,.16717-1.55874,1.22518,1.22518,0,0,1,2.16481-.3265A2.16876,2.16876,0,0,1,125.42434,46.01672Z"/><path class="cls-3" d="M92.0825,33.35107l-.09507.42482Z"/><path class="cls-3" d="M96.648,31.27615l-.08634.30079Z"/><path class="cls-2" d="M107.86775,20.37433a.71465.71465,0,0,1,.712-.29944c.14156.24548-.08765.75535.52065.68283.12435-.01483.14893.24646.077.40734-.07639.16708-.41854.10333-.36078.33416.04829.193.29759.17787.47633.19091a2.574,2.574,0,0,0,1.6777-.48467,9.87317,9.87317,0,0,0,1.57519-1.42c.04371-.05056.09083-.09716.13858-.14389.04612-.05032.09518-.09686.14491-.14326a5.42313,5.42313,0,0,1,1.36727-.91605,1.63834,1.63834,0,0,1,1.98134.15812,1.23389,1.23389,0,0,0,1.47481.11854,25.931,25.931,0,0,0,2.30106-1.50291,3.36551,3.36551,0,0,1,2.30012-.74932.95147.95147,0,0,1,.55917.28254,1.29,1.29,0,0,0,.07391.39443c.0647.11974.18474.20437.32745.04408.31519-.354.63207-.70723.963-1.04629.5796-.59376,1.17888-1.16838,1.75414-1.76622.68406-.71092,1.34914-1.44012,2.02963-2.15454a1.01466,1.01466,0,0,1,.2855-.14933.86154.86154,0,0,1,.09223.30178,6.73982,6.73982,0,0,1-.13636.9405c-.14587.61593-.16977,1.24781-.35737,1.86562a20.05291,20.05291,0,0,0-.3374,2.14495c-.12844.6879-.28744,1.37263-.47887,2.04568-.4452,1.56531-.88611,3.13016-1.40538,4.67613-.557,1.65812-1.22088,3.27013-1.85161,4.89687-.27731.71522-.61111,1.40845-.91577,2.11319a.34289.34289,0,0,0-.0339.19717,4.56824,4.56824,0,0,1-.643,2.96493c-.28068.64262-.50166,1.31127-.75295,1.9669-.12985.33875-.295.66639-.3969,1.013a9.589,9.589,0,0,0-.32562,4.17583,3.41215,3.41215,0,0,1-.3779,2.51388,1.1754,1.1754,0,0,1-1.3137.51724c-.43383-.09208-.65-.41941-.79994-.89523-.19111-.60652.0837-1.11806.08953-1.67306.00164-.15525.07511-.309.08246-.46506.03292-.69878-.00076-.74368-.66036-1.01069a.61749.61749,0,0,0-.84661.18941c-.80228.98746-1.5779,1.997-2.39435,2.97242-.55876.66756-1.17717,1.28477-1.75123,1.94-.24127.27538-.53938.2056-.82917.20946a5.429,5.429,0,0,0-3.20644.98223,4.63359,4.63359,0,0,0-1.91718,3.04864,13.27682,13.27682,0,0,0-.14,1.42458c-.02751.45452-.10778.59856-.52385.62862a6.23781,6.23781,0,0,0-3.24738,1.27915,3.98464,3.98464,0,0,0-1.7648,2.81791,2.48687,2.48687,0,0,0-.03779,1.40475c.08651.19532-.14871.29059-.34821.31631-.29116.03753-.57963.11009-.87147.12537a4.34339,4.34339,0,0,0-2.11866.87631,8.54044,8.54044,0,0,0-1.20024.90339,4.53169,4.53169,0,0,0-1.5069,3.10943,1.93857,1.93857,0,0,0,.00025.27658c.01934.24184-.04225.3593-.32884.39238a7.278,7.278,0,0,0-3.30611,1.3258,10.62226,10.62226,0,0,0-3.33018,3.75051,11.22219,11.22219,0,0,0-1.08927,2.47491,6.09126,6.09126,0,0,0-.23011.987c-.034.374-.227.43974-.54744.45311a16.58767,16.58767,0,0,0-1.90606.14706,5.03,5.03,0,0,0-2.27069,1.0517,8.55634,8.55634,0,0,0-2.87958,5.04239c-.0376.15312.00917.326-.02239.48178a.53862.53862,0,0,1-.5359.48771,11.13874,11.13874,0,0,0-3.006.5031,6.48933,6.48933,0,0,0-2.346,1.68111,8.70569,8.70569,0,0,0-1.53921,3.31184,5.69949,5.69949,0,0,0-.163,1.28163c-.01866.21551-.12848.27037-.31547.26044a7.81239,7.81239,0,0,0-3.31911.90394,14.67291,14.67291,0,0,0-2.44614,1.58756,1.31452,1.31452,0,0,0-1.0001.84134,6.5926,6.5926,0,0,1-.59358,1.01187,4.60545,4.60545,0,0,0-.828,3.4019.44173.44173,0,0,1-.06848.39329c-.10341.28048-.35267.11539-.52889.17344a2.318,2.318,0,0,1-.41521-2.19657,4.929,4.929,0,0,1,.8512-1.9486A10.32859,10.32859,0,0,0,64.11924,87.701a7.864,7.864,0,0,1,4.17483-5.3882,2.38091,2.38091,0,0,1,.24726-.12264,4.7756,4.7756,0,0,0,3.21158-3.483,3.81469,3.81469,0,0,1,3.4132-2.90223,3.12165,3.12165,0,0,0,2.32819-1.86006,3.97777,3.97777,0,0,0,.309-.76826,4.11644,4.11644,0,0,1,2.3838-2.70509,7.12255,7.12255,0,0,1,1.39485-.46323,5.294,5.294,0,0,0,.71344-.12259,3.69,3.69,0,0,0,3.30728-3.26255c.10338-.5161.20526-1.03251.31025-1.54848a7.02517,7.02517,0,0,1,1.05953-2.35451,4.92354,4.92354,0,0,1,2.37779-1.6518c.37962-.09378.764-.16649,1.14542-.25367A4.07938,4.07938,0,0,0,93.714,57.83245a7.48633,7.48633,0,0,1,2.95408-3.9661,5.19969,5.19969,0,0,1,1.71218-.70982,7.086,7.086,0,0,0,4.41924-3.40094c.576-.99666,1.15719-1.9901,1.69435-3.00955a6.12048,6.12048,0,0,1,2.08306-2.264c1.173-.776,2.41494-1.43258,3.64565-2.10706a10.96236,10.96236,0,0,0,2.39708-1.85089,3.68394,3.68394,0,0,0,1.023-2.50181,8.8557,8.8557,0,0,0,.00166-1.17448,3.91178,3.91178,0,0,1,1.85691-3.5643,10.62786,10.62786,0,0,0,2.46134-2.29827,2.36563,2.36563,0,0,0,.54087-2.06363c-.5531-2.06606.24089-3.73954,1.52863-5.27253.5626-.66974,1.16983-1.30424,1.68246-2.01322.79-1.09265,1.39345-2.24435.8797-3.6559a.469.469,0,0,0-.43747-.36424,2.822,2.822,0,0,0-2.12777.85577c-.09959.08776-.19779.17664-.29972.262a1.379,1.379,0,0,1-.16609.12254,7.72751,7.72751,0,0,1-1.76563,1.05856,1.82646,1.82646,0,0,1-1.95225-.20543,1.15954,1.15954,0,0,0-1.56239-.03063,15.92588,15.92588,0,0,0-2.04414,1.73243,3.82015,3.82015,0,0,1-2.77619,1.32579,1.83847,1.83847,0,0,1-1.86106-1.25279,1.22989,1.22989,0,0,1,.14069-1.00914l-.01243.01142Q107.79614,20.427,107.86775,20.37433Z"/><path class="cls-3" d="M107.74218,20.4748l.01512,1.09643c.14655.36344-.15006.50775-.35952.656a70.49506,70.49506,0,0,0-6.12287,4.95109c-.62059.55281-1.19534,1.14995-1.77257,1.74569a2.46181,2.46181,0,0,0-.56376,1.45792,8.27336,8.27336,0,0,1-.7597,2.43207,3.45856,3.45856,0,0,1-3.45476,2.06646c-.61462-.01756-.74259.204-.78547.73423a6.00524,6.00524,0,0,1-.965,2.91953,3.00854,3.00854,0,0,1-3.37846,1.4382c-.497-.11142-.66.04237-.736.49846a8.6231,8.6231,0,0,1-.90713,2.81935,2.87934,2.87934,0,0,1-2.63175,1.71929,2.58724,2.58724,0,0,1-.68039-.10645c-.74343-.21384-.74542-.21223-1.00051.5413-.31783.93891-.63822,1.87626-1.04323,2.783a2.6181,2.6181,0,0,1-2.83014,1.75481c-.69269-.07141-.86224.181-.9857.82968-.25818,1.35641-.662,2.685-.81029,4.06535a.83711.83711,0,0,0,.01137.57655A26.01209,26.01209,0,0,0,79.89,53.57134c2.85081-3.07818,5.91446-5.94628,8.81939-8.96959,4.32655-4.50286,8.66646-8.99225,13.11668-13.37257a20.27963,20.27963,0,0,1,3.2356-2.7958c.24458-.15568.47249-.39575.8138-.25544a.2239.2239,0,0,1,.03977.307,1.62687,1.62687,0,0,1-.35018.42443c-2.27928,2.18236-4.37241,4.54655-6.6125,6.76795-4.05486,4.021-7.97241,8.17808-12.02893,12.1984-.78063.77366-1.53018,1.592-2.25465,2.426a1.10937,1.10937,0,0,1-.13128.14619,1.71684,1.71684,0,0,1-.15251.12347c-1.28937,1.247-2.59219,2.47894-3.77254,3.83519-.74013.85043-1.57587,1.61241-2.37379,2.40889C73.8261,61.22027,69.50842,65.71894,65.11,70.13831c-1.5722,1.5797-3.12265,3.18636-4.68707,4.77661-.21388.21742-.40965.6128-.84187.33063-.09465-.30252.12663-.46844.28917-.6543,2.31747-2.65006,4.74-5.20236,7.17127-7.74722.747-.78188,1.44819-1.60783,2.22459-2.36292a1.38542,1.38542,0,0,0,.40544-.78363,29.54625,29.54625,0,0,0,.33742-3.15706c.01851-.30023-.09334-.42695-.37512-.44933a2.16656,2.16656,0,0,1-.54145-.10586c-.41687-.1453-.63749.03285-.80256.40932-.32428.73958-.57218,1.50814-.884,2.25176a8.10575,8.10575,0,0,1-1.12039,2.05631,2.48417,2.48417,0,0,1-2.64319,1.07652c-.42785-.105-.49185.11907-.56524.46032a7.25421,7.25421,0,0,1-1.30923,3.23638,3.3526,3.3526,0,0,1-3.163,1.30627c-.47254-.06363-.61377.10966-.678.52285a7.55679,7.55679,0,0,1-1.01659,3.12785,3.606,3.606,0,0,1-1.90751,1.52054,2.09291,2.09291,0,0,0-1.24483,1.19177A3.95212,3.95212,0,0,1,50.96,79.40179a2.53618,2.53618,0,0,1-1.23039-.01158c-.37391-.11132-.553.03006-.65957.38224a13.79709,13.79709,0,0,1-2.89575,5.06282,16.98709,16.98709,0,0,1-4.49963,3.93929.78591.78591,0,0,1-.31893.12252l-.68346-.7637c.25972-.17039.51561-.347.77977-.51022a15.97788,15.97788,0,0,0,5.99754-6.521c.48125-.9579.84723-1.97383,1.26054-2.9507a13.06241,13.06241,0,0,0,1.49857.18161,3.09239,3.09239,0,0,0,3.21993-2.70536c.0618-.54094.09249-.53479.61249-.60784a3.02746,3.02746,0,0,0,2.39337-1.86024,8.19852,8.19852,0,0,0,.69649-2.79231c.011-.11461.00928-.2304.01633-.34545.04283-.69865.04568-.71.7428-.55278a4.61178,4.61178,0,0,0,2.71046-.14342A1.99678,1.99678,0,0,0,61.96,67.79914c.21078-1.10375.355-2.22024.528-3.33123.01016-.06525.02416-.1299.03918-.20975.508.14882.9943.32265,1.49476.43085a1.46775,1.46775,0,0,0,1.80154-.78511,7.04112,7.04112,0,0,0,.56821-1.175c.47538-1.26708.9244-2.544,1.38539-3.81656.0614-.16949.13286-.33532.19073-.48047.48965.19744.94306.42421,1.42178.56433a1.85863,1.85863,0,0,0,2.39874-1.06436,13.09565,13.09565,0,0,0,.66668-1.94877,8.99044,8.99044,0,0,1,1.12012-2.42881c.2702-.4211.27464-.40634.73726-.20657a2.65,2.65,0,0,0,1.86963.21657,1.98454,1.98454,0,0,0,1.37712-1.58783c.20166-.89291.31048-1.80717.44908-2.71377.03421-.22375.02808-.45367.04353-.73637a5.76338,5.76338,0,0,1,.54791.19448,3.33744,3.33744,0,0,0,1.47236.30081,1.556,1.556,0,0,0,1.65171-1.09683c.181-.46923.28749-.96679.44046-1.44747q.50087-1.57384,1.017-3.1428a2.52353,2.52353,0,0,1,.15463-.31346c.221.13837.41119.26515.60843.37969a2.38779,2.38779,0,0,0,3.73255-1.50043c.27264-1.04214.46144-2.10626.68823-3.16043.01428-.06636.03089-.13222.04253-.18177a12.02024,12.02024,0,0,0,1.5242.329,2.37136,2.37136,0,0,0,2.40653-1.40115,7.80015,7.80015,0,0,0,.73845-2.42723c.09408-.54155.14336-1.0909.21429-1.64909.491.14222.97953.32393,1.48425.42241A2.42953,2.42953,0,0,0,97.798,31.69728a8.39584,8.39584,0,0,0,.03288-2.68086.83019.83019,0,0,1,.32427-.78454c.86733-.82649,1.71581-1.67512,2.61675-2.46347a70.51721,70.51721,0,0,1,6.49672-5.023C107.41788,20.64273,107.58392,20.56443,107.74218,20.4748Z"/><path class="cls-4" d="M41.35572,88.89708a2.35044,2.35044,0,0,1,.3765-.35651,12.82065,12.82065,0,0,0,2.39305-1.822,21.21967,21.21967,0,0,0,2.8898-3.226,13.906,13.906,0,0,0,1.96079-3.96074c.134-.47489.16231-.48795.64754-.35829a3.077,3.077,0,0,0,3.05728-.86388,4.87707,4.87707,0,0,0,1.15451-1.68577.95231.95231,0,0,1,.63562-.65848A4.20779,4.20779,0,0,0,57.53488,72.473c.14711-.639.23212-1.29222.35266-1.98011.21593.03.45159.05814.68567.09608a3.05931,3.05931,0,0,0,3.03573-1.21944,6.62019,6.62019,0,0,0,1.325-3.59484c.02994-.28352.12278-.37657.38968-.26536a2.10433,2.10433,0,0,0,1.70542.00716,3.07029,3.07029,0,0,0,1.55726-1.57541c.47786-1.00637.88736-2.04531,1.32423-3.07112.07122-.16725.12345-.34313.2019-.50664.11425-.23813.19065-.56364.38417-.67321.163-.09228.47034.06833.71306.12039.346.07423.69137.15156,1.037.22756-.03854.3369-.08053.67343-.115,1.01075-.09708.95135-.1712,1.90573-.30076,2.85255a1.30792,1.30792,0,0,1-.37679.634c-1.08668,1.15555-2.199,2.287-3.28172,3.4462-.71855.76938-1.40156,1.572-2.101,2.35929a1.1962,1.1962,0,0,1-.14549.14762c-1.24846.98852-2.12082,2.33513-3.25824,3.43043a11.90427,11.90427,0,0,0-.94334,1.0878c-.06182.076-.05482.20809-.07954.31432-.00248.027-.005.054-.0064.08127a1.41594,1.41594,0,0,1-.10145.32307,2.60136,2.60136,0,0,1-.70363.72485c-.04533.0326-.09376.06235-.1414.09086-.02154.015-.0453.02892-.06687.044-.03989.03145-.082.06172-.12229.09294-.01814.0165-.03818.032-.05648.04845-.03435.03386-.07106.066-.107.09832-.01672.0167-.035.03242-.05174.04914-.03232.034-.067.06609-.10128.09823-.01622.01671-.03372.03235-.05.0491-.03175.03429-.06559.06657-.09935.099-.01617.01706-.03344.03289-.04966.05-.03192.03537-.0658.06853-.09975.10206-.01643.01786-.03381.03429-.05027.05223-.03263.03746-.06712.0725-.10148.10848-.01652.01964-.03393.03754-.0504.05736-.03185.04266-.06451.08353-.09592.12671-.01444.02412-.03.046-.04466.07046-.02862.05262-.05991.1016-.09248.15136A46.16057,46.16057,0,0,1,53.9079,81.3536q-2.18778,2.19714-4.37531,4.3945-2.08986,2.1018-4.175,4.20823c-.28975.29343-.55627.60976-.83633.91292a.97638.97638,0,0,1-1.39476.10929C42.49971,90.31951,41.94229,89.59442,41.35572,88.89708Z"/><path class="cls-5" d="M80.23038,70.588q-.39288.26438-.78572.5288a3.37246,3.37246,0,0,0-1.344,1.75782,5.3088,5.3088,0,0,1-1.282,2.30656,3.14851,3.14851,0,0,1-1.61077.81348,6.93312,6.93312,0,0,0-1.56083.4612,2.93094,2.93094,0,0,0-1.41583,1.5344c-.28716.64138-.53447,1.30318-.75814,1.96984a3.118,3.118,0,0,1-1.68137,1.79649,20.48866,20.48866,0,0,0-2.188,1.13737,8.05107,8.05107,0,0,0-2.9942,3.75677,7.26573,7.26573,0,0,0-.46053,1.77345,6.87054,6.87054,0,0,1-1.218,2.5761,4.23112,4.23112,0,0,0-.814,2.7,9.97425,9.97425,0,0,0,.30242,1.251c-.80974.3549-1.63646.67588-2.4256,1.0719a10.08618,10.08618,0,0,0-3.79952,3.30865c-.54616.78679-1.01608,1.62789-1.49611,2.45856-.13129.22719-.22024.24755-.40782.08476-.60561-.52559-1.21833-1.04294-1.8279-1.56395-.20888-.17855-.41133-.36509-.626-.5364a1.86161,1.86161,0,0,1-.69157-1.13225.93313.93313,0,0,1,.32256-1.00323q2.88993-2.87622,5.75451-5.77788a7.93094,7.93094,0,0,0,.51539-.63551,2.71021,2.71021,0,0,1,.77567-.85536c1.03054-.90687,1.77619-2.09128,2.87238-2.93022a1.05166,1.05166,0,0,0,.3012-.10973c.037-.0331.07594-.06435.11361-.09664.05287-.05.10727-.09857.16039-.14807.03259-.034.06777-.06566.103-.09668.03247-.03262.06718-.06327.10129-.09409l.04925-.04715c.03036-.03315.06327-.064.09618-.09449l.04747-.047c.02956-.033.06167-.06355.094-.0937l.04676-.04658c.02923-.03276.061-.06306.093-.093l.04639-.04631c.0291-.03263.06063-.06279.09245-.09259l.04623-.04616c.029-.03259.06049-.06267.09225-.0924l.04615-.04612c.029-.03256.06042-.06261.09215-.09233l.04614-.04609c.029-.03258.06039-.06262.09212-.09232l.04613-.04609c.029-.03257.06041-.06262.09214-.09233l.04616-.0461c.029-.03261.06046-.06268.09222-.09243l.04622-.0462c.0291-.0327.06059-.06286.09244-.09271l.04637-.04641c.02924-.03291.06086-.06325.09285-.09332l.04663-.0468c.02945-.03326.06127-.06393.09347-.09435l.04695-.04745c.02967-.03374.06172-.06486.09416-.09575l.04728-.04818c.02984-.03421.06208-.06578.09468-.09712l.04729-.04893c.02956-.03474.06152-.067.09369-.099l.04692-.04936a1.22207,1.22207,0,0,1,.09506-.09643c.02971-.03335.06172-.06458.09343-.09579l.0436-.05c.0396-.05352.074-.11045.10839-.16747a.27919.27919,0,0,1,.08924-.09958c.05431-.03781.11255-.06973.16652-.10822a.91211.91211,0,0,0,.09171-.0958c.03832-.05807.07232-.11847.11524-.17352a.53162.53162,0,0,1,.116-.08655,1.149,1.149,0,0,0,.23861-.16625c.03492-.03564.07226-.06813.11014-.1.05432-.05056.10779-.10183.1583-.1561a1.07666,1.07666,0,0,1,.10371-.10533c.05308-.05047.10631-.10091.1555-.15557.03-.03944.06231-.07661.09456-.114.02983-.04005.061-.07872.09066-.11881.012-.02241.0256-.04333.03733-.0656.03041-.0711.05639-.14344.08393-.21552a.65509.65509,0,0,1,.25213-.2949c.04051-.02955.08328-.0566.12551-.08343.01946-.01475.04045-.02818.05994-.043.03655-.03191.07474-.0623.11178-.0938.01729-.01691.0359-.03252.05328-.04943.03354-.03524.06908-.06834.1044-.10182.0169-.01777.0349-.03418.05182-.052.0332-.037.06838-.07166.10345-.107.0167-.01909.03445-.03663.05114-.05591.03224-.04129.06544-.08092.09734-.12277.01448-.02344.03014-.04478.04476-.06848.028-.051.05863-.09855.09-.147a2.18283,2.18283,0,0,1,.5755-.577c.04555-.0326.09409-.06226.14183-.09113.02177-.01544.04558-.02964.06741-.04515.04068-.03307.08334-.06484.12431-.09793.01876-.01781.03919-.03431.0581-.0521.036-.03709.07429-.072.11227-.10708.01827-.01814.03781-.035.05614-.053a1.04369,1.04369,0,0,1,.11941-.09783c.046-.03164.09331-.059.142-.0861a.56876.56876,0,0,0,.17462-.17163,1.49369,1.49369,0,0,1,.07994-.133.9755.9755,0,0,1,.09319-.11573c.01619-.01757.034-.03462.05017-.05237.032-.03465.06667-.06738.10124-.09958.01621-.01646.03387-.032.05013-.04854.031-.03377.06468-.06513.09847-.096l.04854-.04753c.0301-.03326.06284-.0641.09573-.09449l.04743-.04692c.02957-.03294.06169-.06342.094-.0935l.04681-.04654c.02931-.03276.06111-.06306.09318-.093l.04658-.04643c.02935-.03288.06111-.06323.09323-.09331l.04688-.04689c.0298-.03352.06194-.0644.09457-.0952l.04792-.04843c.03129-.03471.06429-.06711.09759-.10009.01639-.01778.03349-.03395.04994-.05184.03321-.03766.06824-.07243.10416-.10771.01852-.01868.03747-.0355.05616-.05416a.997.997,0,0,1,.1273-.10054c.04852-.03316.098-.06211.14854-.09133a7.13947,7.13947,0,0,0,.91045-.95568,1.62313,1.62313,0,0,1,.10648-.1482,1.51967,1.51967,0,0,1,.11934-.13706c.021-.022.04327-.04265.06442-.06479a1.31928,1.31928,0,0,1,.14017-.12,1.65,1.65,0,0,1,.15646-.10407c.81333-.64016,1.51861-1.39769,2.26188-2.111,1.35844-1.30371,2.66932-2.657,4.00147-3.98824a3.1921,3.1921,0,0,1,.72967-.62511,2.61879,2.61879,0,0,1,.445-.22495C80.323,69.77973,80.26108,70.19188,80.23038,70.588Z"/><path class="cls-5" d="M48.82309,93.29445c.155-.01615.26043.01881.28557.20378q.27639,2.03331.56473,4.065a15.75653,15.75653,0,0,0,.28455,1.68317,1.87577,1.87577,0,0,0,.4625.81183,38.885,38.885,0,0,0,5.42171,4.5534,31.05343,31.05343,0,0,0,5.58387,3.06592c.20967.09029.41066.2009.61453.30436.01367.00692.01759.03309.08788.17625a3.05429,3.05429,0,0,0-.46759.34135c-.75125.777-1.483,1.57289-2.23522,2.349-.5301.54694-.559.5662-1.206.13133-1.02512-.689-2.03125-1.40751-3.0275-2.138-1.08877-.79833-2.17383-1.60354-3.22965-2.44457-1.00423-.7999-1.99629-1.61951-2.94471-2.48427-1.8993-1.73181-3.76529-3.50022-5.64355-5.2551a.438.438,0,0,1-.06487-.11841c1.22564-1.28232,2.50334-2.51284,3.74986-3.77441a8.67985,8.67985,0,0,0,.745-.81655A4.48113,4.48113,0,0,1,48.82309,93.29445Z"/><path class="cls-5" d="M57.38959,90.87861a3.30426,3.30426,0,0,0-.44014.318q-2.857,2.8593-5.70379,5.72882c-.09525.09586-.17607.20608-.31515.37056-.10393-.58342-.21022-1.10753-.28831-1.63581-.11006-.74458-.2015-1.492-.29668-2.2387a1.355,1.355,0,0,0-1.096-1.3115c-.84524-.17544-1.69456-.33262-2.54505-.48083-.55633-.09694-1.11788-.1639-1.81749-.26447.28025-.28408.464-.4719.64946-.65811q4.0221-4.03928,8.043-8.07977c.22537-.2267.42843-.47563.64186-.71422.10962-.10411.21313-.24872.368-.05616a1.20163,1.20163,0,0,1-.048,1.00154,5.98162,5.98162,0,0,0-.06358,4.31351,5.88029,5.88029,0,0,1,.23853.93338,2.36663,2.36663,0,0,0,2.25525,1.9411,1.98652,1.98652,0,0,1,.74983.08478C58.05,90.57469,57.63765,90.69014,57.38959,90.87861Z"/><path class="cls-4" d="M47.8857,93.99677a3.08835,3.08835,0,0,1-.33224.49525q-1.83626,1.85556-3.6926,3.69109a3.14843,3.14843,0,0,1-.55154.35635A75.22161,75.22161,0,0,1,37.53,92.194a83.27381,83.27381,0,0,1-5.01647-6.881c-.10057-.1512-.18463-.31339-.27636-.47047a1.55652,1.55652,0,0,1,.64433-.78595,7.42068,7.42068,0,0,0,1.12874-1.10841c.45664-.56853.73544-.53014,1.05443.11939a29.76857,29.76857,0,0,0,3.38321,5.445,43.18061,43.18061,0,0,0,3.53445,3.96272,2.482,2.482,0,0,0,1.63084.63247c1.26126.11432,2.50063.37195,3.74367.6025A.69749.69749,0,0,1,47.8857,93.99677Z"/><path class="cls-2" d="M57.38959,90.87861l.43481-.63959a1.15955,1.15955,0,0,1,.44016-.59994c4.16059-4.06509,8.12433-8.32478,12.25714-12.4175,1.37155-1.35825,2.76513-2.69589,4.0607-4.12947,1.25167-1.3752,2.60862-2.64684,3.90322-3.97994,3.70314-3.71322,7.45827-7.37492,11.04987-11.19829,1.075-1.05566,2.13452-2.127,3.1947-3.19761,1.68171-1.72438,3.45448-3.35812,5.06835-5.15081a16.33115,16.33115,0,0,0,1.3142-1.30468c.2285-.15437.36055-.45933.69479-.45122a1.07649,1.07649,0,0,1,.46181.29516c.11308.19118-.0281.32851-.10082.48046-.01333.02357-.02854.04682-.04195.07041-.01416.02251-.03013.04469-.04439.06719a1.09245,1.09245,0,0,1-.09843.12133c-.01695.0184-.03557.03629-.0525.05481-.03332.03586-.06964.06967-.10568.10284-.01678.01678-.03519.03277-.052.04961-.0323.0338-.06711.06574-.1014.09757-.016.01632-.03354.03176-.04963.04811-.03061.03354-.064.06471-.09737.09539l-.048.04725c-.02983.0331-.06227.06377-.0949.094l-.04712.04671c-.02943.03285-.06139.06323-.09361.09324l-.04673.04649c-.02938.03288-.0612.06325-.09337.09333l-.04691.04685c-.02978.03346-.06192.06431-.09455.09506l-.0479.04835c-.03131.03466-.06431.067-.09761.09995-.01639.01777-.03349.03393-.04994.05183-.03322.03782-.06824.07272-.104.10843-.01832.01915-.03707.03635-.05555.05558a1.33775,1.33775,0,0,1-.1234.10889c-.04531.03811-.09227.07163-.14055.105a15.556,15.556,0,0,0-1.45456,1.45318c-.01613.02389-.03416.04749-.05.07151-.016.02315-.03417.04588-.05026.069a1.31409,1.31409,0,0,1-.10468.12673c-.01762.01921-.03713.038-.05477.05734-.03453.03718-.07241.07226-.10993.10651-.01738.0172-.03654.03367-.054.05094-.03341.03456-.06941.06735-.10489.1-.01654.01674-.0346.03258-.05122.04939-.03212.03416-.06656.06636-.10071.09865-.0162.01682-.03366.03253-.04993.04943-.03186.03481-.06591.06736-.09982.10036-.01638.01747-.03376.03359-.05022.05117-.03267.03667-.06716.071-.10188.10589-.017.01884-.03484.036-.05191.055-.0343.04-.07034.07731-.10669.11566-.018.021-.0367.0399-.05469.06095-.0364.04481-.07466.08641-.11381.12924-.02014.02325-.04074.044-.06065.067-2.06883,2.09239-4.16,4.16092-6.22812,6.25261q-4.67832,4.62435-9.23308,9.37049a4.0743,4.0743,0,0,0-.47882.66922,4.46583,4.46583,0,0,0-.96415.77436c-2.1313,2.13688-4.25537,4.28111-6.416,6.38854l.0038-.00318a.64307.64307,0,0,1-.14229.14287l.00441-.00442a.66176.66176,0,0,1-.14271.143l.00363-.00431c-.44122.391-.76666.89789-1.24768,1.24906l.00437-.00385a.67042.67042,0,0,1-.1431.14323l.00483-.00484a.68519.68519,0,0,1-.143.14362l.00517-.00514a.73484.73484,0,0,1-.1433.14425l.00586-.00573a.8032.8032,0,0,1-.144.14469l.00617-.00616a.83745.83745,0,0,1-.14439.1447l.00642-.00629a.88359.88359,0,0,1-.14465.14522l.00676-.00675a.90178.90178,0,0,1-.14507.145l.00666-.00669a.875.875,0,0,1-.145.14486l.00651-.00653a.82673.82673,0,0,1-.14493.14441l.00612-.00618a.78842.78842,0,0,1-.14437.14443l.00592-.006a.76162.76162,0,0,1-.14418.144l.00458-.00521a.875.875,0,0,1-.41868.42076l.00631-.00545a.9487.9487,0,0,1-.14475.14514l.00667-.00668a1.04744,1.04744,0,0,1-.14446.14584l.007-.007a1.17807,1.17807,0,0,1-.14514.14556l.00767-.007a.52854.52854,0,0,1-.18506.14678l-.64429.64254a.5117.5117,0,0,1-.146.18719l.00679-.00747a1.19859,1.19859,0,0,1-.14519.14491l.00666-.00668a1.18107,1.18107,0,0,1-.14483.14521l.0067-.00671a1.1811,1.1811,0,0,1-.14512.145l.00676-.00675a1.16966,1.16966,0,0,1-.145.1452l.00741-.00676a.50507.50507,0,0,1-.18732.14633l-.227.23141c-.06937.09745-.05414.2343-.14878.32l.00671-.00795a.64383.64383,0,0,1-.14474.144l.00507-.006a2.24347,2.24347,0,0,1-.28181.28172l.00494-.005a2.20963,2.20963,0,0,1-.28155.28178l.00529-.00524c-.101.15073-.28643.17815-.41671.28609l.00554-.00562c-.08016.07769-.05591.21019-.14761.28182l.00894-.00893c-.07171.09183-.20423.06769-.28192.14811l.00617-.00613c-.08042.07842-.05721.21061-.14714.2841l.00905-.01021a.36266.36266,0,0,1-.13708.08637c-.07015.04825-.08493.13861-.14658.19329l.00047.00015a.57557.57557,0,0,1-.13772.13853v0a.5885.5885,0,0,1-.138.13807l-.00063.00048a.57266.57266,0,0,1-.1377.13763l-.00083.0008a.58.58,0,0,1-.13734.13806l-.00047.00045a.59222.59222,0,0,1-.13789.1379l-.00043.00038a.58663.58663,0,0,1-.13787.138l-.00042.00039a.59352.59352,0,0,1-.138.1384l.00017-.00007a.62011.62011,0,0,1-.13842.139l.0006-.00061a.6406.6406,0,0,1-.139.13936l.00117-.00107a.67844.67844,0,0,1-.13937.1402l.00179-.00179a.71568.71568,0,0,1-.14013.14054l.00224-.00216a.74806.74806,0,0,1-.14046.14093l.00253-.00255a.77006.77006,0,0,1-.14067.141l.00249-.00247a.78616.78616,0,0,1-.14049.14081l.00215-.00216a.79582.79582,0,0,1-.14054.14071l.00242-.00243a.80333.80333,0,0,1-.14059.14085l.00257-.00266a1.0591,1.0591,0,0,0-.27944.27992l.00307-.00335a.90256.90256,0,0,1-.26763.15713c-.40712.39191-.82386.77439-1.21937,1.17772-.81151.82756-1.61069,1.66724-2.41922,2.49776-.042.04318-.12385.04753-.18716.06995Z"/><path class="cls-6" d="M122.26033,16.74405a3.473,3.473,0,0,0-2.271.79746c-.74482.52-1.52189.99412-2.29127,1.47812a1.2345,1.2345,0,0,1-1.63275-.14194,1.36626,1.36626,0,0,0-1.79066-.146c-.49944.26453-.95616.60987-1.43182.91939a.993.993,0,0,1-.12909.13837l.00122-.00154c-.55869.35338-1.04865.80583-1.619,1.14063a1.86132,1.86132,0,0,1-1.98152.24114c-.04653-.42242-.04653-.42242-.72128-.15614l.18659-.93865A9.48836,9.48836,0,0,1,109.741,19.154c1.73916-.99458,3.49856-1.95383,5.25564-2.91666a3.19451,3.19451,0,0,1,.57664-.18806.95082.95082,0,0,1,.98608.01067c.24777.16166.5405.0868.80467.15893a1.15353,1.15353,0,0,0,1.10846.0098c.743-.3427,1.49815-.65775,2.226-1.03486a1.80392,1.80392,0,0,0,.977-.989,2.61842,2.61842,0,0,1,1.46576-.47412c.79275.30394.87948.27822,1.23975-.37083a.47934.47934,0,0,1,.7697-.06676c.22417.24426-.04245.46008-.18861.6488A26.1853,26.1853,0,0,1,122.26033,16.74405Z"/><path class="cls-2" d="M54.48725,81.76859l-.26594.144c.00341-.24692.10081-.54665-.31342-.55895q1.06176-1.11917,2.12408-2.2378c.458-.48006.92145-.955,1.38246-1.43217a.42828.42828,0,0,1,.146-.17673l-.00885.00958a.6386.6386,0,0,1,.14724-.14741l-.00895.009a.6443.6443,0,0,1,.147-.1474l-.00873.00874a.65965.65965,0,0,1,.147-.14743l-.009.009a.66168.66168,0,0,1,.14731-.14715l-.00881.00881a.66121.66121,0,0,1,.14692-.14734l-.00878.00879a.66556.66556,0,0,1,.147-.147l-.0086.00859a.66292.66292,0,0,1,.14686-.147l-.00913.00844a.45237.45237,0,0,1,.17347-.146l.79492-.80694c.07307-.08781.04957-.22364.14824-.29872l.00932.02558a2.99368,2.99368,0,0,0,.42957-.306q4.71138-4.76777,9.4144-9.54381,5.40621-5.48988,10.80711-10.985c1.2593-1.28118,2.51107-2.56977,3.7682-3.8531.09471-.09669.20478-.17831.30772-.26692.05287.0752.093.09153.10463-.02278l-.004-.00346a.69385.69385,0,0,1,.63455-.06249c.26067.18142.08359.3512-.02928.50187a6.81005,6.81005,0,0,1-.59573.63017c-1.4974,1.4699-2.97186,2.96346-4.45124,4.452-1.39437,1.60014-2.94292,3.05044-4.42408,4.56631-1.43143,1.384-2.802,2.828-4.18737,4.25763a2.80747,2.80747,0,0,0-.54707.52176,6.0934,6.0934,0,0,1-.78086.87241c-5.10384,5.00708-9.99794,10.2222-15.08976,15.24117C54.83993,81.48005,54.71585,81.68533,54.48725,81.76859Z"/><path class="cls-2" d="M25.03883,119.43511a7.59024,7.59024,0,0,1,2.3358.89075c.72286.35744.75762.26469.13177.87275-.47453.461-.99761.87284-1.46245,1.34285-.6429.65-1.26269,1.32415-1.86861,2.009-.21964.24828-.37588.26661-.59672.02681-.10511-.11413-.26478-.1767-.37557-.287q-1.90629-1.89708-3.80281-3.804a1.31987,1.31987,0,0,1-.14753-.22369,13.61955,13.61955,0,0,1,1.34756-1.38206,1.16377,1.16377,0,0,1,1.16049-.24546C22.8591,118.87869,23.94206,119.18518,25.03883,119.43511Z"/><path class="cls-2" d="M40.25421,104.21881c.43847.10072.88046.18839,1.31457.30535.60913.16411,1.211.35516,1.819.52358.19244.05332.22643.15327.10194.28419-.34873.36679-.7021.73008-1.06967,1.07777-.51477.487-1.05669.94557-1.56419,1.43977-.80777.78658-1.60076,1.58853-2.391,2.3928-.219.22291-.34646.23624-.49249-.07421-.37614-.79964-.77668-1.58778-1.16747-2.38052-.27414-1.13474-.59254-2.25929-.77976-3.414a3.76889,3.76889,0,0,1-.0785-.54383c-.00909-.59953.18411-.75747.74481-.57463.60949.19874,1.20749.43168,1.815.63776A6.00112,6.00112,0,0,0,40.25421,104.21881Z"/><path class="cls-4" d="M18.69244,127.20652c-.62542-.5958-1.2721-1.171-1.87143-1.79206-.96673-1.00175-1.90227-2.03367-2.851-3.05284a6.96379,6.96379,0,0,1,1.7977-2.0541.54167.54167,0,0,1,.7551.008,3.71159,3.71159,0,0,1,.5986.56861,14.9577,14.9577,0,0,0,3.24528,2.419l-.00353-.00135a.34118.34118,0,0,0,.141.144l-.00651-.00458a.28493.28493,0,0,0,.20736.14242l.753.83775a12.56156,12.56156,0,0,1-2.0737,2.375A1.07369,1.07369,0,0,1,18.69244,127.20652Z"/><path class="cls-2" d="M34.72214,109.75535c.88217.41579,1.76595.82827,2.64224,1.25614.04921.024.07479.19167.04361.26262a.9877.9877,0,0,1-.231.25122q-1.99757,2.00017-3.9965,3.999c-.40268.40162-.5044.41875-.703-.107a5.66711,5.66711,0,0,1-.78909-2.36c-.26858-1.20865-.49265-2.427-.68477-3.64871-.098-.62312.29359-.87658.92447-.60906A16.21836,16.21836,0,0,0,34.72214,109.75535Z"/><path class="cls-2" d="M40.03738,97.02146l5.88834,5.88515c-.48261.48281-.95412.97132-1.449,1.43485a.53028.53028,0,0,1-.42261.10364c-.71974-.17922-1.43-.39622-2.14766-.58423a1.30363,1.30363,0,0,1-.88092-.8406,22.43186,22.43186,0,0,1-1.24262-3.09012c-.17292-.58192-.33556-1.1692-.453-1.76392a.87391.87391,0,0,1,.173-.56352A4.65485,4.65485,0,0,1,40.03738,97.02146Z"/><path class="cls-3" d="M47.8857,93.99677c-1.26692-.236-2.53251-.47966-3.80153-.70385a11.7832,11.7832,0,0,0-1.28491-.14331,1.26991,1.26991,0,0,1-.87333-.48835c-.8772-.96552-1.72462-1.95981-2.6332-2.89465a19.19517,19.19517,0,0,1-2.57852-3.44315c-.66145-1.085-1.24576-2.2175-1.85433-3.33437-.23481-.43092-.31644-.47793-.59918-.07615a12.33435,12.33435,0,0,1-2.0235,1.92958.20628.20628,0,0,1-.05571-.04009c-.4466-.65482-.44647-.655.12353-1.22047.8-.7937,1.59676-1.59069,2.40162-2.37942.3329-.32622.34793-.32116.533.11369a29.32223,29.32223,0,0,0,3.79359,6.6822c1.04693,1.33706,2.18585,2.60194,3.28294,3.89968a1.24545,1.24545,0,0,0,.82837.42733c1.76713.261,3.53035.54864,5.294.833a2.218,2.218,0,0,1,.3846.136Z"/><path class="cls-5" d="M18.69244,127.20652a13.20806,13.20806,0,0,0,2.42321-2.62226c.0533-.0903.22543-.11032.34236-.163.596.52736,1.19793,1.04816,1.78575,1.58448.35572.32454.68144.682,1.036,1.00785a.4613.4613,0,0,1,.0831.71668,12.80469,12.80469,0,0,1-2.17008,2.27332.35793.35793,0,0,1-.49356.00111c-.106-.08561-.2342-.146-.33211-.2391Q20.02595,128.49008,18.69244,127.20652Z"/><path class="cls-2" d="M28.66328,114.7343c.58537-.08691.9613.3668,1.41239.59087a23.17507,23.17507,0,0,1,2.012,1.25337c-.10238.1165-.19326.23177-.29614.33508-.908.91177-1.823,1.81669-2.72406,2.73524-.20749.21153-.40584.2587-.54632-.00675a10.83234,10.83234,0,0,1-1.25581-2.70381,21.17984,21.17984,0,0,1-.65831-2.1609c-.04963-.2473-.12161-.5238.1024-.70756.21068-.1728.44043-.00735.64051.08237A6.90173,6.90173,0,0,1,28.66328,114.7343Z"/><path class="cls-2" d="M25.30932,114.45054q.35151.82767.70308,1.65532c.46911,1.10267.93856,2.20519,1.429,3.35752-.37273-.146-.76245-.29347-1.14825-.45061a23.76491,23.76491,0,0,0-3.92611-1.26876,1.04055,1.04055,0,0,1-.24293-.1259c-.13234-.27119.0609-.43714.21434-.59509q1.17348-1.20792,2.38132-2.38178C24.87433,114.49161,25.0391,114.28269,25.30932,114.45054Z"/><path class="cls-7" d="M117.43012,16.321c-.17974.02015-.35915.04409-.53932.059-.10245.00848-.27944.03685-.29808-.00269-.22782-.48318-.66248-.28008-1.01942-.328.66868-.3411,1.31569-.7369,2.01025-1.01273,1.84632-.73323,3.69606-1.46543,5.57734-2.10038,1.4398-.48595,2.92977-.823,4.39742-1.22629l.071.124c-.44968.49734-.885,1.00866-1.352,1.4891-.98014,1.00834-1.97854,1.99888-2.96545,3.00066-.1761.17876-.33295.37651-.49869.56549l-.55285-.14514a2.82426,2.82426,0,0,1,.31009-.50141c.4571-.48274.9429-.93825,1.40022-1.42079.37553-.39623.72937-.81336,1.084-1.22878a.38333.38333,0,0,0,.0639-.242c-.00053-.024-.12154-.07439-.17671-.06265-.16309.03472-.32088.09444-.48073.14439a.96826.96826,0,0,0-1.25519.41247l-1.52151.4098A7.84752,7.84752,0,0,0,117.43012,16.321Z"/><path class="cls-2" d="M34.72338,104.3397q.23268.74085.46518,1.48175a22.72545,22.72545,0,0,0,1.49407,3.57081,1.16761,1.16761,0,0,1,.0633.30015,1.46072,1.46072,0,0,1-.301-.06812q-2.12736-.97872-4.24892-1.97a2.25249,2.25249,0,0,1-.36795-.27306A12.95419,12.95419,0,0,1,34.72338,104.3397Z"/><path class="cls-2" d="M29.73486,109.72365c.19.62455.37368,1.25111.57144,1.8732.32149,1.01129.65133,2.01993.98054,3.02875.02792.08555.10148.16159.11006.24649a.41515.41515,0,0,1-.07573.23981c-.01086.01732-.13639-.00686-.1793-.04537-.21917-.19663-.46629-.37129-.42462-.73445.028-.24433-.10789-.39661-.30374-.1649-.23842.28206-.43362.21116-.69471.06373-.8702-.4914-1.75042-.965-2.6238-1.4508-.052-.02893-.07763-.1054-.11554-.15976-.18129-.23775-.05645-.43989.1006-.60769q1.04781-1.11952,2.16627-2.16932C29.37748,109.71978,29.53484,109.61,29.73486,109.72365Z"/><path class="cls-3" d="M20.36671,123.30308a1.47289,1.47289,0,0,1-.44833-.09779,13.44381,13.44381,0,0,1-3.32464-2.60348c-.42732-.48479-.46765-.4716-.9173-.00575-.49137.50907-.95521,1.04468-1.43649,1.56368a1.81909,1.81909,0,0,1-.26993.20188c-.76638-.76836-.78068-.83888-.06055-1.60729.56661-.6046,1.15541-1.18979,1.75748-1.7591.34652-.32766.4342-.319.74356.006q1.95222,2.05078,3.88662,4.11852A.536.536,0,0,1,20.36671,123.30308Z"/><path class="cls-4" d="M14.37692,128.60052l-.11405-.1402a5.813,5.813,0,0,1-.31022-2.96985c.01565-.29048.02784-.67769.50091-.66729l3.299,3.33332A2.917,2.917,0,0,1,14.37692,128.60052Z"/><path class="cls-5" d="M25.30931,114.45054a1.60413,1.60413,0,0,0-.39786.21378q-1.286,1.268-2.55018,2.558a1.942,1.942,0,0,0-.23712.39581l-1.39089-.2663,4.2007-4.48911Z"/><path class="cls-5" d="M14.37692,128.60052c.17408.03616.34848.0708.52218.1087a3.38019,3.38019,0,0,0,2.284-.34362,5.31633,5.31633,0,0,1,.56945-.2091l1.77156,1.57561a1.40076,1.40076,0,0,1-1.019.47548,4.3466,4.3466,0,0,1-3.3673-.84686A8.055,8.055,0,0,1,14.37692,128.60052Z"/><path class="cls-5" d="M34.72338,104.3397q-.84088.88068-1.6816,1.76155-.60824.6387-1.21373,1.28l-1.23664-.42452,3.8182-4.0217Z"/><path class="cls-5" d="M29.73486,109.72365a2.53943,2.53943,0,0,0-.44489.2854c-.68382.66932-1.35381,1.35277-2.0332,2.02668-.16585.16451-.32642.32223-.27731.58462l-1.18986-.559c.41556-.47825.79822-.94691,1.21084-1.38743.79577-.84959,1.60848-1.68326,2.45949-2.57081Z"/><path class="cls-5" d="M40.25421,104.21881a1.94092,1.94092,0,0,1-1.624-.08767c-.75485-.23-1.48786-.53394-2.22362-.82307-.22342-.08779-.31949-.01887-.296.19062.05288.47128.10868.94458.20639,1.40795.1812.85932.39838,1.711.58506,2.56924.0201.09244-.06234.20723-.09721.31166a16.19044,16.19044,0,0,1-.78883-1.78094c-.31664-1.013-.54561-2.05345-.80944-3.08287a1.533,1.533,0,0,1-.042-.2689c-.02647-.36671.047-.42772.37278-.3041q2.31938.88023,4.63648,1.7664C40.20852,104.1304,40.22777,104.184,40.25421,104.21881Z"/><path class="cls-5" d="M34.72214,109.75535a1.697,1.697,0,0,1-1.07191-.0928c-.55964-.16952-1.0865-.44453-1.638-.64516-.23763-.08645-.4931-.356-.74355-.144-.26474.224-.08789.5291-.04318.82391a13.83956,13.83956,0,0,1,.46293,3.36c-.0876-.09429-.21727-.17377-.25644-.28513A41.21058,41.21058,0,0,1,30.1945,108.048c-.07353-.32924.06094-.43759.3684-.29566.97058.44806,1.936.90752,2.90015,1.36927C33.88674,109.32447,34.30268,109.54359,34.72214,109.75535Z"/><path class="cls-2" d="M38.98589,100.02455c.28842.73086.57367,1.463.867,2.19186.101.25092.214.49783.33648.739.11141.2194.018.34481-.1823.27291-.98143-.35229-1.9522-.73429-2.92674-1.10579-.013-.01872-.03939-.03932-.03707-.05589A3.67036,3.67036,0,0,1,38.98589,100.02455Z"/><path class="cls-5" d="M38.98589,100.02455a8.53848,8.53848,0,0,0-.76773.63455c-.37427.38623-.719.80159-1.0665,1.21287-.05106.06042-.04889.16589-.07135.25053-.40409-.13855-.81095-.27-1.2089-.42436a.25675.25675,0,0,1-.07546-.23623,3.41866,3.41866,0,0,1,.375-.39909c.80261-.80979,1.60562-1.61918,2.42446-2.44481Z"/><path class="cls-5" d="M25.03883,119.43511a5.6412,5.6412,0,0,1-1.99962-.31489c-.49494-.14376-.99685-.26906-1.5023-.36888a.83181.83181,0,0,0-.86171.27535,11.43481,11.43481,0,0,1-.97135.97155,2.39772,2.39772,0,0,1-.45114.26438c-.10262-.12133-.202-.24559-.30846-.36346-.33146-.36693-.33848-.39031-.02269-.72607.28275-.30065.59557-.57433.86372-.88691a.61991.61991,0,0,1,.67668-.20661q2.06321.53625,4.11869,1.102A2.19759,2.19759,0,0,1,25.03883,119.43511Z"/><path class="cls-6" d="M62.94835,94.77786a4.25946,4.25946,0,0,1,.49854-3.45885c.36913-.595.6927-1.21813,1.04246-1.82532.30818-.535.31165-.533.94912-.36423-.2178.32078-.44441.636-.65172.96341A7.39185,7.39185,0,0,0,63.615,93.26871c-.03931.36117-.11342.72041-.1261,1.08212C63.47541,94.736,63.27539,94.82208,62.94835,94.77786Z"/><path class="cls-3" d="M14.45356,124.82318a.66871.66871,0,0,0-.32283.6894,9.65918,9.65918,0,0,0,.12775,2.46565,1.73134,1.73134,0,0,1,.00438.48209,3.43812,3.43812,0,0,1-.887-1.8917,4.41249,4.41249,0,0,1,.28487-2.77132Z"/><path class="cls-5" d="M28.66328,114.7343a3.15837,3.15837,0,0,1-1.34733-.41189c-.18856-.067-.36762-.16069-.60137-.26465a6.4085,6.4085,0,0,0,.38785,1.87855c.083.32669.11045.66753.163,1.002a6.81279,6.81279,0,0,1-.40309-.76422c-.3616-.95012-.70425-1.90753-1.04548-2.86525a1.06434,1.06434,0,0,1-.01164-.31788,1.26011,1.26011,0,0,1,.29856.0776c.77679.42293,1.55408.84549,2.31841,1.29022C28.53656,114.42534,28.58456,114.60627,28.66328,114.7343Z"/><path class="cls-3" d="M117.55167,41.92628a.85893.85893,0,0,1,.08517-.16464,1.33432,1.33432,0,0,1,.16161-.14556,1.48811,1.48811,0,0,1,.01186.24108c-.00289.02971-.0565.05447-.087.08148A.1146.1146,0,0,1,117.55167,41.92628Z"/><path class="cls-8" d="M117.55167,41.92628l.17165.01235-.07072.20234-.154-.12342A.24473.24473,0,0,1,117.55167,41.92628Z"/><path class="cls-3" d="M107.86775,20.37433l-.138.11189Z"/><path class="cls-3" d="M20.50419,123.44569l-.141-.144Z"/><path class="cls-3" d="M20.705,123.58353l-.20736-.14242Z"/><path class="cls-9" d="M119.05509,52.88769a3.74232,3.74232,0,0,1-.346.62646.40392.40392,0,0,1-.34379-.05237,1.32791,1.32791,0,0,1-.06959-.6445c.03008-.13693.25926-.3517.34327-.32846C118.78977,52.53053,118.89827,52.72518,119.05509,52.88769Z"/><path class="cls-7" d="M124.33391,45.62136l-.4653.45421c-.11267-.12234-.26858-.22731-.32646-.37166-.06428-.16037.18784-.481.31852-.43251A2.373,2.373,0,0,1,124.33391,45.62136Z"/><path class="cls-4" d="M105.96291,28.2482c-.55436-.07533-.85252.39125-1.24322.63035a7.19487,7.19487,0,0,0-1.1953,1.025c-2.04548,1.98868-4.10242,3.96619-6.11678,5.98614-2.454,2.46075-4.86776,4.96157-7.30222,7.44183q-4.11154,4.1889-8.22714,8.37383C80.678,52.931,79.49655,54.175,78.30487,55.40907c-.15655.1621-.32327.31439-.55544.53917-.05707-2.21067.81-4.16319,1.01085-6.15752a11.40123,11.40123,0,0,0,1.78809.01179,2.11965,2.11965,0,0,0,1.68846-1.25462c.42345-.954.77752-1.93894,1.15953-2.91132.02476-.063.02685-.13493.05128-.19814.12169-.315.16379-.73443.39291-.91544.281-.222.59374.18958.9245.24785a2.444,2.444,0,0,0,1.833-.26245A3.40866,3.40866,0,0,0,88.069,42.66686a27.3203,27.3203,0,0,0,.71425-2.75833c.06351-.28666.10362-.33907.38108-.21614a3.58022,3.58022,0,0,0,1.83005.14645,1.793,1.793,0,0,0,.91433-.41718,4.46993,4.46993,0,0,0,1.61-2.55718,5.90018,5.90018,0,0,0,.26814-1.53834,2.66394,2.66394,0,0,1,.11945-.52737c.03115-.19027.15244-.21489.29847-.18056a3.20949,3.20949,0,0,0,3.36473-1.13808,5.60758,5.60758,0,0,0,1.03479-2.286,6.89819,6.89819,0,0,0,.26515-1.39827,1.45932,1.45932,0,0,1,.51766-1.00427c1.06127-1.01192,2.15319-1.99158,3.22948-2.98782a62.43757,62.43757,0,0,1,4.92744-3.92105,1.20263,1.20263,0,0,0,.21326-.3115,1.994,1.994,0,0,0,2.4737.91652,4.1685,4.1685,0,0,0,1.841-1.15842,10.97182,10.97182,0,0,1,2.3339-1.91892c.62476-.32872.73337-.50781,1.40311.06566a1.69122,1.69122,0,0,0,1.92267.28123c.51588-.23828.98774-.57162,1.48094-.85966.13452-.07856.27538-.14623.41333-.2189.2064.33617-.07441.5154-.25234.69756-.49827.51009-.97953,1.03306-1.4405,1.578-.81225.96023-2.04131,1.201-3.09624,1.74087a51.03863,51.03863,0,0,0-7.52673,4.30845,5.96467,5.96467,0,0,0-1.01053.933,1.35527,1.35527,0,0,1-.11053.15343.67451.67451,0,0,1-.13857.12524C106.02168,28.22663,105.9923,28.23741,105.96291,28.2482Z"/><path class="cls-5" d="M100.00469,48.584l.28919-.4076a8.574,8.574,0,0,1,1.445-1.63272q3.49068-3.55087,7.03652-7.04723c1.069-1.05169,2.0788-2.15941,3.07746-3.27145a17.96916,17.96916,0,0,0,2.35462-3.89562,54.85159,54.85159,0,0,0,3.82554-9.32931,2.97073,2.97073,0,0,1,.85367-1.39211c1.16246-1.05446,2.12084-2.30642,3.25417-3.38925.15294-.14613.23448-.421.53308-.35634a2.59329,2.59329,0,0,1,.02886,2.4127,8.59667,8.59667,0,0,1-1.6843,2.48439,13.95017,13.95017,0,0,0-2.12255,2.93781,4.12011,4.12011,0,0,0-.29872,2.67229,2.83074,2.83074,0,0,1,.01033,1.8673,8.07231,8.07231,0,0,1-.94709,1.40571,10.24919,10.24919,0,0,1-2.12845,1.83816,3.75879,3.75879,0,0,0-1.58759,2.16227,5.68363,5.68363,0,0,0-.12038,1.35582,6.40875,6.40875,0,0,1-.272,2.3702,4.43753,4.43753,0,0,1-1.08088,1.54171,16.83712,16.83712,0,0,1-3.754,2.49545,14.32586,14.32586,0,0,0-3.01691,2.0013,9.644,9.644,0,0,0-1.549,2.32062,22.36285,22.36285,0,0,1-1.92716,3.15249,6.758,6.758,0,0,1-3.58488,2.38315,5.97761,5.97761,0,0,0-3.32966,2.09738,9.01621,9.01621,0,0,0-1.56746,2.92456,4.12087,4.12087,0,0,1-3.31426,2.73192c-.35389.07708-.71855.10461-1.07825.15495-.21364.0972-.44588.19117-.60276-.06039a.53106.53106,0,0,1,.14324-.68061c.709-.74232,1.44777-1.45529,2.16754-2.187a2.468,2.468,0,0,0,.609-.72911.90822.90822,0,0,1,.1406-.23355c.05473-.06164.11588-.11823.17434-.17654a1.6176,1.6176,0,0,1,.16535-.1579,1.2271,1.2271,0,0,0,.14648-.16022.81052.81052,0,0,1,.09334-.11368c.072-.07026.14174-.14246.20809-.21893.0346-.04157.07183-.07958.10986-.1175a1.48437,1.48437,0,0,0,.19726-.27505c.62039-.79392,1.42036-1.41509,2.07764-2.17393a2.88212,2.88212,0,0,0,.58673-.75034l-.00306.00356a.48662.48662,0,0,0,.14314-.14259l-.005.005a.50134.50134,0,0,0,.14334-.14355l-.00524.00528a.51833.51833,0,0,0,.14436-.14372l-.00613.00619a.54107.54107,0,0,0,.14461-.14457l-.00633.00639a.5598.5598,0,0,0,.14513-.14474l-.00683.00689a.57623.57623,0,0,0,.14519-.14532l-.007.007a.57932.57932,0,0,0,.1453-.14537l-.007.007a.59344.59344,0,0,0,.14565-.14535l-.00721.00544a1.208,1.208,0,0,1,.15609-.11366,15.02307,15.02307,0,0,0,1.64014-1.68943l.00361-.00146a.385.385,0,0,0,.1359-.13634l.00217-.00193a.38577.38577,0,0,0,.13634-.13677l.00153-.00141a.38618.38618,0,0,0,.13685-.13713l.00137-.00112a.386.386,0,0,0,.13688-.13744l.00109-.001a.379.379,0,0,0,.13691-.13758l.00139-.001a.37752.37752,0,0,0,.13712-.13761l.00076-.00057a.37872.37872,0,0,0,.138-.13853l-.0001.00076a.38979.38979,0,0,0,.13906-.13957l-.00166.00176a.38834.38834,0,0,0,.13983-.14033l-.00149.00186a.385.385,0,0,0,.13958-.14034l-.00163.00181a.37836.37836,0,0,0,.13991-.14057l-.00342.00169q.05958-.03371.0482-.0782Q100.02179,48.584,100.00469,48.584Z"/><path class="cls-1" d="M122.67392,17.86236c-1.29536,1.36442-2.58482,2.73453-3.89125,4.08824a2.06615,2.06615,0,0,0-.5239.86527,54.53979,54.53979,0,0,1-4.02192,9.79733c-.548,1.05375-1.1546,2.078-1.76268,3.0988a4.92755,4.92755,0,0,1-.73249.90426Q106.663,41.787,101.57088,46.94445c-.41528.42092-.85084.82178-1.277,1.23193a.42286.42286,0,0,1-.44836-.31112c.00409-.4957.37521-.76853.67461-1.07121,1.6324-1.65036,3.28044-3.28515,4.9155-4.93285q.93252-.90775,1.83718-1.84378c1.39311-1.3445,2.71841-2.7543,4.03111-4.17638a4.10264,4.10264,0,0,0,.49692-.6628,57.87551,57.87551,0,0,0,5.348-11.5882.88991.88991,0,0,0,.07329-.43929,10.36122,10.36122,0,0,0-2.11959.841,65.60048,65.60048,0,0,0-8.23456,4.65737,5.28268,5.28268,0,0,0-.769.69c-1.57161,1.55651-3.09753,3.157-4.609,4.77152-2.58984,2.55346-5.17328,5.11453-7.69876,7.73089-.89376.92591-1.78982,1.85246-2.678,2.78512-.38981.36994-.766.75377-1.14063,1.13929-.88728.90626-1.83354,1.75516-2.645,2.73493a4.75584,4.75584,0,0,0-1.22713,1.26788c-.30179.20661-.4232.69-.91753.602l-.71058-.0308a3.91868,3.91868,0,0,1,.34965-.48352q4.44-4.54064,8.88777-9.07359,5.79414-5.91963,11.58326-11.84421c.22416-.22923.44657-.46018.6698-.69033l-.01435-.00022a.51367.51367,0,0,1,.14339-.14549l.00016.0091a6.93321,6.93321,0,0,1,1.71993-1.26274,56.72319,56.72319,0,0,1,9.65928-4.90146,6.31429,6.31429,0,0,0,2.124-1.93849,19.47531,19.47531,0,0,1,2.61261-2.55212C122.51923,17.41245,122.6696,17.55334,122.67392,17.86236Z"/><path class="cls-3" d="M122.208,17.45678a4.34568,4.34568,0,0,1-.28775.37448c-1.18761,1.24983-2.37084,2.50406-3.57608,3.73669a2.35807,2.35807,0,0,1-.83905.56577,43.49631,43.49631,0,0,0-6.76462,3.18833c-1.50986.86691-2.97186,1.81729-4.45677,2.72787a.84135.84135,0,0,1-.19157.06167c.09623-.55568.56541-.80878.94672-1.10827a24.50292,24.50292,0,0,1,3.98771-2.50041c1.07481-.55112,2.117-1.16633,3.19575-1.70926.7914-.39831,1.614-.73621,2.4312-1.08086a3.53276,3.53276,0,0,0,1.24562-.94906c.4908-.54477.9955-1.07711,1.48014-1.6272a2.25535,2.25535,0,0,0,.24674-.45779l-.00085.002a.78329.78329,0,0,0,.2866-.26458A2.62179,2.62179,0,0,1,122.208,17.45678Z"/><path class="cls-5" d="M86.03654,65.0635a9.05432,9.05432,0,0,1-.75591,3.06779A3.88218,3.88218,0,0,1,83.09732,69.873a4.1222,4.1222,0,0,1-.79322.15676c-.30735-.39239-.17281-.88785-.30949-1.32a1.41839,1.41839,0,0,1,.62285-1.42654,5.542,5.542,0,0,0,1.41985-1.55372,5.82248,5.82248,0,0,1,1.40947-1.27538.42246.42246,0,0,1,.52013-.01232C86.19461,64.61141,86.11372,64.84418,86.03654,65.0635Z"/><path class="cls-7" d="M86.03654,65.0635a1.86271,1.86271,0,0,0-.00424-.2058c-.04968-.39-.28637-.50138-.58087-.25347a5.84862,5.84862,0,0,0-.50421.53941c-.19207.20881-.3392.46827-.68279.4849-.06093.00294-.11556.19863-.16767.30791a1.86521,1.86521,0,0,1-.25254.52392,7.14608,7.14608,0,0,1-1.05228.91569A1.19358,1.19358,0,0,0,82.15709,68.66c-.34429.128-.36862.418-.37611.72469a1.06593,1.06593,0,0,1-.16721.77665l-1.38339.42667a1.72593,1.72593,0,0,1-.13651-.40876c-.02083-.2714-.12443-.42783-.4138-.41654l-.06885-.06978c.04854-.4761.47773-.65723.76395-.92575,1.30635-1.22554,2.50059-2.56128,3.78583-3.80656,1.79879-1.74286,3.419-3.65956,5.2353-5.38532.59383-.57366,1.16482-1.17049,1.75755-1.74513.19111-.18527.3459-.44336.66942-.427a.54586.54586,0,0,1-.20543.52619c-.82842.78819-1.62277,1.61228-2.428,2.42484a1.2484,1.2484,0,0,0-.22023.25668c-.06948.12622-.17975.2981-.13991.39661.03725.09208.24637.11771.38262.16451a.43066.43066,0,0,0,.13728.00055,1.47557,1.47557,0,0,1-.26852.18038,4.58321,4.58321,0,0,0-2.77973,3.03915C86.22793,64.62065,86.12554,64.83993,86.03654,65.0635Z"/><path class="cls-6" d="M90.00835,61.98648a7.39988,7.39988,0,0,1-.73213.588,4.63341,4.63341,0,0,0-1.861,2.38,1.36541,1.36541,0,0,1-.15321.37526,1.23161,1.23161,0,0,1-.33207.21039,1.48605,1.48605,0,0,1-.06485-.31023A3.96836,3.96836,0,0,1,89.264,61.92517a3.16715,3.16715,0,0,1,.6749-.06526Z"/><path class="cls-7" d="M109.11447,21.16968a2.971,2.971,0,0,0,2.38113-.72937c.34193-.27972.689-.6734,1.21935-.6524a5.40384,5.40384,0,0,1-2.62337,1.9861,3.67611,3.67611,0,0,1-1.26794-.00676.369.369,0,0,1-.37012-.41394c.04565-.26311.29467-.1402.45541-.1803A.88475.88475,0,0,1,109.11447,21.16968Z"/><path class="cls-6" d="M94.91686,57.39269c-.08743-.16448-.17021-.25037-.15213-.29735a3.18717,3.18717,0,0,1,.43623-.98119A6.29433,6.29433,0,0,1,97.06425,54.505a1.00588,1.00588,0,0,1,.238-.05191c-.02919.094-.02986.23957-.092.274a3.88116,3.88116,0,0,0-1.29165,1.56034A8.384,8.384,0,0,1,94.91686,57.39269Z"/><path class="cls-7" d="M121.60349,31.18953a4.67148,4.67148,0,0,1-.94068,2.01993.44771.44771,0,0,1-.415.087.46325.46325,0,0,1-.185-.38669,1.30679,1.30679,0,0,1,.233-.55564c.29866-.42992.6204-.844.94-1.25893a1.46569,1.46569,0,0,1,.23313-.19993Z"/><path class="cls-7" d="M79.285,73.3651c-.05235-.0575-.13859-.1113-.158-.18315a.58278.58278,0,0,1-.00534-.336,2.23274,2.23274,0,0,1,1.3704-1.3354.46277.46277,0,0,1,.38986.15984.38056.38056,0,0,1-.02434.37218c-.43523.43222-.89406.84078-1.3503,1.25136C79.46227,73.33452,79.38182,73.33569,79.285,73.3651Z"/><path class="cls-7" d="M74.77223,77.40006a3.31536,3.31536,0,0,1-.24975.34925c-.415.42327-.83186.845-1.25854,1.25631-.06875.06629-.21964.13341-.28.10126a.38605.38605,0,0,1-.16276-.28108,2.03972,2.03972,0,0,1,1.54431-1.60337C74.48594,77.224,74.60519,77.324,74.77223,77.40006Z"/><path class="cls-6" d="M123.85358,25.81558a8.68481,8.68481,0,0,1-.99185,3.45583A11.69363,11.69363,0,0,1,123.85358,25.81558Z"/><path class="cls-4" d="M81.61377,70.16135c-.00066-.4247-.01414-.85.00652-1.27368a.42384.42384,0,0,1,.183-.32025c.08776-.03835.23357.05638.35385.09258l.147,1.36977Z"/><path class="cls-9" d="M119.50448,42.68617c.00241.46676-.13983.736-.37754.74982-.26474.01537-.47153-.32184-.44585-.73436a.88129.88129,0,0,1,.044-.26849c.07742-.19415.16651-.40136.4297-.36626.24908.03323.32471.22411.341.44766C119.50079,42.58322,119.5028,42.65211,119.50448,42.68617Z"/><path class="cls-10" d="M119.63,34.7521c.00023.43448-.24362.79954-.47218.80308-.25642.004-.36032-.15619-.37022-.39787-.014-.34307.27593-.72917.538-.6618C119.4652,34.53139,119.57092,34.69922,119.63,34.7521Z"/><path class="cls-4" d="M119.91174,18.41618c.00865.20126-.08259.29411-.2866.26457Z"/><path class="cls-7" d="M112.71373,19.78945l.12909-.13837Z"/><path class="cls-4" d="M74.259,59.43307c.059-.677.10586-1.35531.18044-2.03058.06936-.628.16428-1.25339.25619-1.87872a3.97847,3.97847,0,0,1,.14356-.65959.33865.33865,0,0,1,.221-.19333,4.76471,4.76471,0,0,0,1.88517-.49981c.18373-.1161.24243.03945.22293.19477-.08436.672-.14723,1.349-.28032,2.01168a2.124,2.124,0,0,1-.42236.98076c-.65817.72925-1.38055,1.40042-2.07774,2.09439Z"/><path class="cls-1" d="M84.47643,50.34331l-.00783.1078-.0968-.085A.11022.11022,0,0,1,84.47643,50.34331Z"/><path class="cls-3" d="M59.63548,75.29537l-.14824.29872Z"/><path class="cls-3" d="M57.69883,77.36907l-.14724.14741Z"/><path class="cls-3" d="M57.56044,77.5069l-.146.17673Z"/><path class="cls-3" d="M58.69232,76.401l-.17347.146Z"/><path class="cls-3" d="M58.38972,76.677l-.147.147Z"/><path class="cls-3" d="M58.2515,76.81525l-.14692.14734Z"/><path class="cls-3" d="M58.11339,76.95378l-.14731.14715Z"/><path class="cls-3" d="M57.97507,77.092l-.147.14743Z"/><path class="cls-3" d="M57.83685,77.23064l-.147.1474Z"/><path class="cls-3" d="M58.528,76.5386l-.14686.147Z"/><path class="cls-3" d="M72.1962,76.80654a3.90869,3.90869,0,0,1,.35484-.48738q3.2076-3.24655,6.42788-6.48054a3.73327,3.73327,0,0,1,.49073-.35712.18142.18142,0,0,1,.123.1792.32439.32439,0,0,1-.22638.36207q-2.05344,2.0288-4.10771,4.05674c-.82682.81311-1.65608,1.624-2.49913,2.42007A2.4885,2.4885,0,0,1,72.1962,76.80654Z"/><path class="cls-3" d="M70.67536,78.32952l1.24768-1.249a.88926.88926,0,0,1-.09922.30215,10.65508,10.65508,0,0,1-.77673.85609C70.9678,78.31527,70.80167,78.30175,70.67536,78.32952Z"/><path class="cls-3" d="M68.74,80.26933l.41868-.42076C69.21294,80.182,69.07131,80.32022,68.74,80.26933Z"/><path class="cls-3" d="M65.14627,83.8694l.41671-.28609C65.57289,83.89584,65.36816,83.89515,65.14627,83.8694Z"/><path class="cls-3" d="M65.55769,83.58855c-.02408-.212.06922-.30646.28155-.28178C65.85513,83.51055,65.76246,83.60566,65.55769,83.58855Z"/><path class="cls-3" d="M65.8343,83.31173c-.02517-.21329.07212-.30382.28181-.28172C66.12971,83.2317,66.03817,83.328,65.8343,83.31173Z"/><path class="cls-7" d="M79.36623,70.02277l.165-.27926a.07044.07044,0,0,1,.12079-.00919l.028.02839C79.68262,69.979,79.56915,70.055,79.36623,70.02277Z"/><path class="cls-4" d="M61.5632,87.48051l.26763-.15712C61.76325,87.41269,61.7863,87.65663,61.5632,87.48051Z"/><path class="cls-4" d="M61.82776,87.32674c-.00652-.193.07938-.29355.27944-.27992Z"/><path class="cls-3" d="M64.73122,84.28478l.28192-.14811Z"/><path class="cls-3" d="M64.59025,84.56275l.14714-.2841Z"/><path class="cls-3" d="M65.0042,84.1456l.14761-.28182Z"/><path class="cls-3" d="M66.24907,82.89992l.14878-.32Z"/><path class="cls-4" d="M64.31564,84.8322l.14-.26514q.058.04512.042.09411-.01626.04995-.03447.05Z"/><path class="cls-3" d="M69.98393,79.0243l.1444-.14471Z"/><path class="cls-3" d="M69.8457,79.16323l.14466-.14522Z"/><path class="cls-3" d="M69.56905,79.43969l.145-.14486Z"/><path class="cls-3" d="M69.43062,79.57757l.14494-.14441Z"/><path class="cls-3" d="M69.29239,79.71582l.14437-.14443Z"/><path class="cls-3" d="M69.15412,79.85378l.14419-.144Z"/><path class="cls-3" d="M68.60158,80.409l.14475-.14513Z"/><path class="cls-3" d="M68.46379,80.54818l.14446-.14584Z"/><path class="cls-3" d="M68.32563,80.68678l.14514-.14556Z"/><path class="cls-3" d="M68.14824,80.82651l.18507-.14678Z"/><path class="cls-3" d="M67.358,81.65623l.146-.18719Z"/><path class="cls-3" d="M67.21957,81.79368l.1452-.14491Z"/><path class="cls-3" d="M67.0814,81.93221l.14484-.14521Z"/><path class="cls-3" d="M66.943,82.07051l.14512-.145Z"/><path class="cls-3" d="M66.80476,82.209l.145-.1452Z"/><path class="cls-3" d="M66.62485,82.34853l.18732-.14633Z"/><path class="cls-3" d="M66.111,83.036l.14474-.144Z"/><path class="cls-3" d="M64.46314,84.71114l-.00753-.14408.14369-.01452Z"/><path class="cls-3" d="M69.70739,79.30152l.14507-.145Z"/><path class="cls-4" d="M64.04037,85.10893l.138-.13807Z"/><path class="cls-4" d="M63.90205,85.247l.1377-.13763Z"/><path class="cls-4" d="M63.76388,85.38589l.13734-.13806Z"/><path class="cls-4" d="M63.62552,85.52425l.13789-.1379Z"/><path class="cls-4" d="M63.48722,85.66262l.13787-.138Z"/><path class="cls-4" d="M63.34879,85.80141l.138-.1384Z"/><path class="cls-4" d="M63.21054,85.9403l.13842-.139Z"/><path class="cls-4" d="M63.07209,86.07905l.139-.13936Z"/><path class="cls-4" d="M62.93389,86.21818l.13937-.1402Z"/><path class="cls-4" d="M62.79555,86.35693l.14013-.14054Z"/><path class="cls-4" d="M62.65733,86.4957l.14046-.14093Z"/><path class="cls-4" d="M62.51919,86.63417l.14067-.141Z"/><path class="cls-4" d="M62.3812,86.77251l.14048-.14081Z"/><path class="cls-4" d="M62.24279,86.91106l.14054-.14071Z"/><path class="cls-4" d="M62.10464,87.04948l.14058-.14084Z"/><path class="cls-3" d="M70.53663,78.46891l.1431-.14323Z"/><path class="cls-3" d="M70.39844,78.60769l.143-.14362Z"/><path class="cls-3" d="M70.26032,78.7468l.1433-.14425Z"/><path class="cls-3" d="M70.12215,78.88576l.144-.14469Z"/><path class="cls-4" d="M64.17839,84.97088l.13772-.13853Z"/><path class="cls-3" d="M72.05771,76.94623,72.2,76.80336Z"/><path class="cls-3" d="M71.91941,77.08478l.14271-.143Z"/><path class="cls-7" d="M90.99961,44.5474c.08755-.10491.16829-.21652.26366-.31377q4.51881-4.60807,9.04157-9.21229c.3362-.34208.69046-.66638,1.03634-.99893a3.53222,3.53222,0,0,1,3.9778,1.08885,3.40324,3.40324,0,0,0,.66884.59031,5.29545,5.29545,0,0,1,1.20408,1.21872,2.82742,2.82742,0,0,1,.14594,3.23594l-1.78933,1.8001c-.60784.23667-.96093.82418-1.54515,1.11022a1.87736,1.87736,0,0,1-.89164.29879,7.5263,7.5263,0,0,1-2.38767-.16425.90485.90485,0,0,0-.60268.06144c-.69708.22669-1.39259.459-2.10114.64882-.151.04047-.335.04765-.37424.24737-.04213.21452.095.34168.25465.44549a2.86406,2.86406,0,0,0,.42791.22027,1.41366,1.41366,0,0,1,.87672,1.36326c.02291.71039.03669,1.422.004,2.133a3.20923,3.20923,0,0,1-.31311.44119q-2.92752,2.949-5.86564,5.88754a1.82734,1.82734,0,0,1-.21674.16212c-.94237.45342-1.78917-.01291-2.655-.28081-.14764-.04568-.28356-.225-.4381-.12806-.17692.111.01395.30347-.02058.439-.26849,1.05394.42671,2.12326-.05846,3.16931-.75088.80685-1.48112,1.63417-2.25635,2.41686q-4.20759,4.24813-8.44078,8.47088c-.11267.11289-.241.21014-.362.31468a3.123,3.123,0,0,1-2.93726-.20866c-.41063-.28891-.34071.09278-.38739.38856-.19992,1.26692.19086,2.6243-.5671,3.80534q-4.09,4.14444-8.17981,8.289-4.08966,4.14663-8.17828,8.29428c-.15976.16188-.33841.30507-.50826.457a5.73918,5.73918,0,0,1-.68781-.00478c-.41625-.05052-.84247.12881-1.25236-.18263a4.65166,4.65166,0,0,1-1.34045-1.54641.28723.28723,0,0,1-.03421-.197c.18025-.54759-.37461-.94821-.288-1.47414-.49188-.546-.21554-1.20861-.26251-1.81807a3.58431,3.58431,0,0,1,.49653-2.37165c.13779-.20709.02792-.5793.03165-.87576a5.52261,5.52261,0,0,1,.45023-.59209c1.93025-1.94943,3.8738-3.88569,5.80126-5.83788q4.8319-4.89388,9.6505-9.801c.3171-.32187.64831-.62983.973-.94425.40925.58316,1.07854.52128,1.66243.67.24456.06226.34371-.0836.36026-.29186a3.94182,3.94182,0,0,1,1.37577-2.80572c.39975-.349.44608-.98918.61519-1.512a1.18211,1.18211,0,0,1,.143-.31152q1.2423-1.2804,2.48428-2.56111.97077-1.00361,1.93715-2.01148a.99447.99447,0,0,1,.46068.90608A1.00979,1.00979,0,0,0,81.54883,57.884a1.81966,1.81966,0,0,0,1.13665-.09692c.35446-.13894.7462-.36432,1.08911-.04111.39.36759.08022.76781-.05622,1.13682a2.12255,2.12255,0,0,0-.20342,1.38982c.24563.86464.41667.95482,1.42483.74709a4.022,4.022,0,0,0,2.18154-1.54879c.26646-.39858.51311-.8123.80729-1.19557a1.72187,1.72187,0,0,0,.40725-1.28263,11.38679,11.38679,0,0,0-1.37382-4.758,1.24224,1.24224,0,0,1-.14789-.13077,1.42328,1.42328,0,0,0-.294-.25679c-.37106-.26591-.79544-.15465-1.20219-.17117-.34163-.07206-.82533.20868-.95536-.38517l.82041-.92018.838-.72338c.883.391,1.20437.17259,1.21055-.82769.00082-.13437-.00991-.26917-.00928-.40393L89.89633,45.667C90.47694,45.50394,90.9466,45.23135,90.99961,44.5474Z"/><path class="cls-5" d="M99.20931,48.32076a1.21291,1.21291,0,0,1-.16957-.39565c-.01866-.59789.00112-1.19693-.01422-1.795a2.37175,2.37175,0,0,0-.1227-.515c-.12889-.49364-.59329-.57313-.95977-.77006-.09616-.05166-.2223-.04984-.31468-.1057-.31356-.18961-.28579-.50494-.24557-.801.04445-.32711.325-.1494.49908-.20127.18933-.05641.37795-.1152.56656-.174a.9629.9629,0,0,1,.31624-.09553,1.17446,1.17446,0,0,0,.72744-.25747c.20308-.12349.51252.03689.7382-.23474.07949-.09567.413.00276.6257.04016a5.58236,5.58236,0,0,0,.63735.15914c.48165.0248.96635-.0105,1.4481.01325a1.07008,1.07008,0,0,0,1.066-.41426c.02471-.03693.06035-.10065.08556-.09814.54347.05415.72571-.423.994-.72372.21369-.23956.31183-.02306.46152.00452-1.39181,1.40956-2.78965,2.81323-4.17237,4.23167-.528.54168-1.02144,1.11717-1.53062,1.67726Z"/><path class="cls-5" d="M74.69075,73.19876c.04741-.24977-.106-.54021.20494-.74284.08617-.05615.07106-.29356.07349-.44826.00824-.52676.02506-1.05494-.00464-1.58013-.01658-.2931.17968-.48678.23366-.72136.04639-.20157-.17951-.45124-.21616-.69023-.049-.31959.06341-.42374.39339-.35655a1.159,1.159,0,0,1,.58607.29532.62578.62578,0,0,0,.58206.24863.4361.4361,0,0,1,.137.00152c.62573.11293.70092.16583,1.12487-.05485.31856-.16581.51944.07637.77709.06349q-1.32741,1.35582-2.6546,2.71187Q75.30741,72.56018,74.69075,73.19876Z"/><path class="cls-5" d="M89.64164,58.01108c-.00476-.36837-.00031-.73716-.01729-1.105-.01294-.28053.07313-.56237-.20605-.82011a.7235.7235,0,0,1,.04141-.68521c.19-.25066.22293-.38823.0017-.62034a.55292.55292,0,0,1-.07963-.43578c.08321-.37751.24158-.3977.58516-.14818.25222.18317.49859.41275.85885.33609a.19432.19432,0,0,1,.13559.00537c.56866.43011,1.23023.21786,1.85244.27365Z"/><path class="cls-9" d="M79.652,69.73432a.41762.41762,0,0,1-.12079.00919l-.0616-.262a2.54915,2.54915,0,0,1,.28733-.44628q4.61424-4.6857,9.23922-9.3608a1.94261,1.94261,0,0,1,.214-.16477c.148-.06936.21716.0149.26683.13716a1.49957,1.49957,0,0,1-.15144.22287Q86.00319,63.27576,82.674,66.6751c-.97775.99235-1.98883,1.95177-2.98215,2.92881C79.66336,69.6319,79.66463,69.69017,79.652,69.73432Z"/><path class="cls-3" d="M89.477,59.64681l-.26683-.13716c.49139-.512.97661-1.03009,1.47533-1.53482q2.25145-2.27865,4.51317-4.5471a3.77584,3.77584,0,0,1,.36766-.28995,1.60628,1.60628,0,0,1-.20906.5356c-.58952.63257-1.2085,1.23754-1.81169,1.8575-.20555.21127-.39543.4378-.59247.65736a1.04056,1.04056,0,0,1-.28411.28147l.00153-.00159a1.10849,1.10849,0,0,1-.27795.2849.18173.18173,0,0,0-.0196.08809.20768.20768,0,0,1-.16158.16154l-.11446.11525a.2224.2224,0,0,1-.15577.16485l-.11789.12041c-.61278.6019-1.22352,1.2059-1.83972,1.80426C89.82343,59.3629,89.64631,59.50082,89.477,59.64681Z"/><path class="cls-7" d="M98.46558,50.23225c-.01919.37406-.33149.55366-.525.81578-.2023.27407-.60417.40177-.60948.84142-.00065.05336-.336.10267-.51626.15385a1.70782,1.70782,0,0,1-.12372-.12938A6.55245,6.55245,0,0,1,98.46558,50.23225Z"/><path class="cls-3" d="M96.39955,52.30658l-.14519.14532Z"/><path class="cls-3" d="M96.5379,52.16822l-.1453.14536Z"/><path class="cls-3" d="M96.67656,52.0299l-.14564.14535Z"/><path class="cls-3" d="M96.69114,51.91392l.12372.12938-.14551-.008A.10259.10259,0,0,1,96.69114,51.91392Z"/><path class="cls-7" d="M98.60509,50.09445l-.13589.13634Z"/><path class="cls-7" d="M98.7436,49.95574l-.13635.13678Z"/><path class="cls-7" d="M98.882,49.81721l-.13685.13713Z"/><path class="cls-7" d="M99.02023,49.67866l-.13688.13743Z"/><path class="cls-7" d="M99.15823,49.54009l-.13691.13758Z"/><path class="cls-7" d="M99.29674,49.40143l-.13712.13762Z"/><path class="cls-7" d="M99.43552,49.26233l-.138.13852Z"/><path class="cls-7" d="M99.57448,49.12352l-.13906.13957Z"/><path class="cls-7" d="M99.71265,48.985l-.13983.14033Z"/><path class="cls-3" d="M95.98391,52.72174l-.14436.14372Z"/><path class="cls-7" d="M99.85074,48.84647l-.13958.14034Z"/><path class="cls-7" d="M99.989,48.70771l-.13991.14057Z"/><path class="cls-7" d="M100.00469,48.584l.09355.07441-.11264.051A.17831.17831,0,0,1,100.00469,48.584Z"/><path class="cls-3" d="M96.12239,52.58336l-.14461.14457Z"/><path class="cls-3" d="M96.26119,52.445l-.14513.14474Z"/><path class="cls-3" d="M95.7064,52.99875l-.14314.14259Z"/><path class="cls-3" d="M95.84479,52.86018l-.14334.14355Z"/><path class="cls-9" d="M117.43012,16.321a2.91246,2.91246,0,0,1,.56279-.72526,10.85064,10.85064,0,0,1,2.91359-1.39863,2.24414,2.24414,0,0,1,.7779.05806.55485.55485,0,0,1-.27405.697,18.62875,18.62875,0,0,1-3.28552,1.55321C117.84786,16.605,117.58618,16.668,117.43012,16.321Z"/><path class="cls-9" d="M123.20591,13.84532a.60227.60227,0,0,1,.43565-.67974.6506.6506,0,0,1,.81954.26727c.086.39622-.19036.53912-.4787.63685C123.68767,14.1696,123.38886,14.18134,123.20591,13.84532Z"/><path class="cls-5" d="M75.51881,60.3422c.10428.775-.39254,1.38564-.5738,2.08268a.20748.20748,0,0,1-.14876.11457c-.42545.04681-.52958.33691-.69787.6922a3.4937,3.4937,0,0,0-.51386,1.86137.6463.6463,0,0,1-.00535.20682c-.0624.2653-.312.406-.51308.22506-.28666-.25789-.59735-.18243-.90891-.20151a.78383.78383,0,0,1-.795-.73c.01029-.04456.00567-.10389.033-.13156Q73.422,62.411,75.45478,60.36627C75.4694,60.35155,75.49717,60.34994,75.51881,60.3422Z"/><path class="cls-10" d="M80.37633,57.5694c-.05073-.08649-.14639-.17378-.14488-.25935a2.5262,2.5262,0,0,0-.29121-1.54043c.55383-.57344,1.10185-1.15263,1.66279-1.719.91543-.92432,1.83928-1.84028,2.75957-2.75978.096.064.18764.17356.28875.18314.28148.02666.56688.01179.85075.01333.04046.35909-.25137.52051-.45084.72268-1.12592,1.14126-2.24917,2.28581-3.40154,3.4A3.76082,3.76082,0,0,0,80.37633,57.5694Z"/><path class="cls-3" d="M106.092,28.10249l-.14339.14549Z"/><path class="cls-7" d="M92.39257,56.753l.27795-.2849C92.688,56.67068,92.58719,56.75773,92.39257,56.753Z"/><path class="cls-7" d="M92.669,56.46971l.28411-.28147C92.9588,56.38359,92.874,56.48739,92.669,56.46971Z"/><path class="cls-7" d="M91.94116,57.28275l.15577-.16485Z"/><path class="cls-7" d="M92.21139,57.00265l.16158-.16154Z"/><path class="cls-5" d="M107.33784,40.15623a1.72425,1.72425,0,0,1,.18108-.9568,1.53481,1.53481,0,0,0,.02722-1.19225,4.62076,4.62076,0,0,0-1.82322-2.28373c-.17-.11032-.39275-.21536-.46982-.37981-.33518-.71516-1.0925-.8569-1.64817-1.26712-.09188-.06783-.267-.02669-.40381-.02885-.62-.00981-1.24-.01708-1.85994-.02526,1.33905-1.39133,2.714-2.75031,4.00525-4.18471a14.23178,14.23178,0,0,1,3.29349-2.54254,65.63767,65.63767,0,0,1,6.26942-3.40452c.7627-.35834,1.55278-.6585,2.33241-.98025a1.0682,1.0682,0,0,1,.24879-.03937.71875.71875,0,0,1,.00234.247c-.52673,1.43311-1.0358,2.87344-1.599,4.2922-.43791,1.10322-.88915,2.20785-1.4338,3.26035-.86176,1.66531-1.80641,3.28765-2.71721,4.92748a.787.787,0,0,1-.12032.16694Q109.48146,37.96181,107.33784,40.15623Z"/><path class="cls-5" d="M87.22227,48.41564a1.27771,1.27771,0,0,1-.11964,1.51164.636.636,0,0,1-.7965.08336,1.75713,1.75713,0,0,1-.28513-.36337Z"/><path class="cls-5" d="M90.99961,44.5474c.00473.25349.25592.50963-.0156.76061-.23113.21366-.44744.44744-.81289.36722a1.43973,1.43973,0,0,0-.27479-.00824Z"/><path class="cls-10" d="M104.55786,41.24219c-.01242.26022.05608.47979-.36325.588-.53011.13675-.98446.55447-1.51271.71575a1.72336,1.72336,0,0,1-1.44111-.06681,1.64665,1.64665,0,0,0-1.39858.03114c-.0748.04379-.16678.11633-.23595.10227-.474-.09643-.79192.44524-1.27118.3012-.35147.43921-.84053.23546-1.27193.25386a1.18493,1.18493,0,0,1-1.08233-1.03683,4.28717,4.28717,0,0,1,.7029-2.2793,6.30022,6.30022,0,0,1,1.29984-1.57821,6.12063,6.12063,0,0,0,.86331-1.00451c.149-.27764.578-.36614.80646-.66063a5.45267,5.45267,0,0,1,.804-.81153,9.67781,9.67781,0,0,1,1.17259-.86732,1.264,1.264,0,0,1,.60646-.04478,4.04337,4.04337,0,0,1,1.3638.058c.36559.14036.61305.57366.93113.857a6.7226,6.7226,0,0,0,1.45491,1.26312.7893.7893,0,0,1,.50962.85919c-.032.00822-.064.01643-.09594.02517A2.7977,2.7977,0,0,0,104.725,37.648a4.16359,4.16359,0,0,1,.6535.01357c.16558.02506.39344.047.24446.32811a1.7202,1.7202,0,0,1-.9384.12311c-.77486-.01721-1.54094-.15679-2.31892-.16184-.43654-.00284-.58015-.24421-.30345-.62341a2.84072,2.84072,0,0,1,.94807-.96717c.2201-.07882.538.03442.62827-.30484a.61765.61765,0,0,0-.24332-.67186.66576.66576,0,0,0-.77625-.07055,3.65609,3.65609,0,0,0-1.0655.97037,34.34455,34.34455,0,0,1-2.67666,2.78383,25.04446,25.04446,0,0,1-1.854,1.94386,1.30124,1.30124,0,0,0-.27812.39259.615.615,0,0,0,.04319.82132.70869.70869,0,0,0,.8889.11144,2.34215,2.34215,0,0,0,.71575-.64118,1.7241,1.7241,0,0,1,1.73121-.60315c.74957.11381,1.5089.16237,2.25261.30519a3.31881,3.31881,0,0,0,2.0852-.18677C104.49368,41.22086,104.52577,41.23153,104.55786,41.24219Z"/><path class="cls-6" d="M80.37633,57.5694a1.54814,1.54814,0,0,1,.55587-1.46526c1.43429-1.4014,2.83812-2.834,4.25191-4.25642.11275-.11343.2123-.24.318-.36042.42019.00284.86526-.10366,1.20034.27349.09883.06794.07516.20536.1594.28157l-.00371-.0042a2.01728,2.01728,0,0,1,.372,1.027c.248,1.24352.54612,2.47555.83286,3.70994a1.708,1.708,0,0,1-.5479,1.86566c-.61689.52187-1.04091,1.23-1.64,1.77413a4.00913,4.00913,0,0,1-.97359.75894,1.04179,1.04179,0,0,1-1.31343-.145.95767.95767,0,0,1-.19749-.70169c-.10688-.48861.27721-.74882.52469-1.04868a13.85,13.85,0,0,1,1.35028-1.37127,1.36687,1.36687,0,0,0,.45976-1.59645,12.0868,12.0868,0,0,1-.26553-1.20867c-.03542-.14727.00531-.36592-.18717-.40325-.13219-.02564-.21891.14565-.31429.24156q-1.3338,1.34127-2.67552,2.67455c-.219.21671-.4177.50582-.80407.3904A1.2189,1.2189,0,0,1,80.37633,57.5694Z"/><path class="cls-6" d="M64.73949,81.94854c-.26562.77518-.53632.98848-1.09852.96663-.482-.01875-.59594-.40738-.81191-.70343a2.05039,2.05039,0,0,1-.12319-1.51046c.10971-.91345.05384-.97047-.84952-.92892a9.58214,9.58214,0,0,1-1.56358-.05421,1.11812,1.11812,0,0,1-.8339-.23582.84077.84077,0,0,1,.15628-1.49242c.138-.06584.27991-.12343.42-.18481a3.65007,3.65007,0,0,1,1.92661-.22032c.237.004.5588.00044.5899.32606.028.29267-.28927.29548-.47867.39444-.53645.15164-1.10366.02365-1.64125.17079-.16867.04617-.4446.041-.433.2553.01433.26568.302.22137.49367.2299a11.458,11.458,0,0,0,1.92632-.10015c.91333-.11342,1.11232.08156,1.13032.99179.01229.62172-.0279,1.24515.02135,1.86479.01982.24933.03366.69158.4549.23228a7.78272,7.78272,0,0,0,.1-2.0675,1.68632,1.68632,0,0,1,.12489-.831.96236.96236,0,0,1,.51025-.28955c.66111-.07034,1.32089-.16152,1.98489-.216.19645-.01612.497.00455.49381-.25171-.00352-.28613-.3132-.29829-.53508-.29483-.57352.00893-1.13827.15055-1.71742.11231-.70043-.04625-.83123-.16389-.85223-.87748-.019-.644.01-1.28894-.01475-1.9328-.00747-.19462.03288-.50041-.22193-.51125-.2874-.01223-.29918.30312-.32386.52362-.05125.458-.01467.9197-.02647,1.37966a1.66382,1.66382,0,0,1-.12315.74318c-.29453.39586-.45294.16363-.55108-.13862a4.50023,4.50023,0,0,1-.08572-2.05261,1.52537,1.52537,0,0,1,.18254-.78273,5.9527,5.9527,0,0,1,.455-.41623.83571.83571,0,0,1,1.31254.54385,6.723,6.723,0,0,1,.01726.68926,2.47827,2.47827,0,0,1,.18384,1.40042c.00989.43854.17052.61978.62825.55187a1.84113,1.84113,0,0,1,1.39239.119,2.6295,2.6295,0,0,1,.53467.081.89193.89193,0,0,1,.01943,1.65959c-.18219.07276-.37409.12117-.56159.18061a2.2158,2.2158,0,0,1-1.39786.23219c-.4953-.017-.71959.1286-.64342.67837A3.688,3.688,0,0,1,64.73949,81.94854Z"/><path class="cls-6" d="M77.475,59.5177a.17694.17694,0,0,0,.06752-.00342c.67858-.34118,1.093.00374,1.43039.55a5.71472,5.71472,0,0,1-.00226,2.09976c-.0813.63048-.04274.66125.60369.61935a3.38144,3.38144,0,0,1,1.75029.02762.789.789,0,0,1,.81588.58114.83671.83671,0,0,1-.3592,1.003c-.10916.07121-.21358.14973-.32017.22489a6.36743,6.36743,0,0,1-2.07591.40028c-.51735.03327-.7382.26337-.80055.81134a3.63792,3.63792,0,0,1-.4482,1.98523c-.071.05561-.14386.109-.21271.16722-.23762.20078-.43577.44718-.82461.28182a.83205.83205,0,0,1-.61759-.867.91169.91169,0,0,0-.01247-.137,1.51187,1.51187,0,0,1-.08632-1.20461c.06727-.40641-.02169-.62718-.49344-.56219a1.13216,1.13216,0,0,1-.92085-.18538c-.65051-.69662-.50421-.94774.00067-1.63011.79958-.49643,1.42329-.49163,1.85977.01287-.19919.44337-.64507.35223-.99992.45943-.19481.05885-.47618.09136-.44775.33949.02989.26082.31148.21044.511.2036,1.44979-.0497,1.44915-.0512,1.32083,1.38916a5.73448,5.73448,0,0,0-.107,1.02544c.01405.15673.01621.35862.21487.38141.20021.023.264-.17182.29209-.32461.108-.5865.14926-1.18357.26513-1.76963.05965-.19977.09139-.40584.13737-.6088a.53736.53736,0,0,1,.09932-.18474,2.69731,2.69731,0,0,1,.89015-.276,2.47287,2.47287,0,0,0,.61177-.11223c.46848-.12.954-.14626,1.42309-.25852.15494-.03708.33853-.11854.31282-.31111-.02748-.2059-.2385-.19674-.38868-.18842-.59652.033-1.18653.13089-1.77886.20579-.88236.11157-1.08851-.06408-1.08235-.93956.00455-.64456.17018-1.2768.15919-1.9234-.00346-.20351.05152-.48831-.1933-.5289-.27873-.04621-.26341.2615-.30745.44822-.14295.606-.1048,1.23779-.25126,1.84422-.04267.1767-.05329.37009-.25055.46433a.3032.3032,0,0,1-.3232-.19981A4.16975,4.16975,0,0,1,77.475,59.5177Z"/><path class="cls-10" d="M81.47866,58.00531a4.28906,4.28906,0,0,0,.59954-.42481c1.10124-1.09607,2.19025-2.20445,3.34887-3.37509.11916.49538.231.94428.33431,1.39514.07571.33052.10925.6741.21707.99306a1.007,1.007,0,0,1-.29183,1.12028c-.50287.50484-1.0237.99355-1.50033,1.52214a12.32074,12.32074,0,0,0-.79578,1.09109,1.1657,1.1657,0,0,1-.06627-1.03c.08246-.314.30665-.58865.41089-.89994a.80018.80018,0,0,0-.03066-.56168c-.09836-.19322-.29685-.10457-.48331-.03941a2.76294,2.76294,0,0,1-1.52673.33151A.84036.84036,0,0,1,81.47866,58.00531Z"/><path class="cls-6" d="M66.96553,73.23671c-.91614-.16031-1.11437-.48818-.84542-1.39829a3.79407,3.79407,0,0,1,.66758-.9584c1.23284-1.17512,2.32593-2.48327,3.526-3.68928a2.76632,2.76632,0,0,1,.66517-.48291,3.9047,3.9047,0,0,1,.37773-.27367.8168.8168,0,0,1,1.20492.27264c.06824.08757.13076.17959.19593.26956a11.1955,11.1955,0,0,1,.68069,2.93411c.12934.51.19193,1.0385.28914,1.55785a.92125.92125,0,0,1-.13943.7872.84918.84918,0,0,0-.00018.10983,1.37059,1.37059,0,0,1-1.94071.37424c-.22356-.15175-.45884-.32877-.25412-.65874.30055-.18534.57809.00163.86213.06073.42963.0894.70045-.01886.626-.51666-.20446-1.36667-.409-2.73424-.69067-4.087-.12363-.59377-.359-.65886-.788-.26-1.5527,1.44369-2.92035,3.06754-4.41541,4.5678-.16233.16288-.34873.40253-.15312.60387.21688.22323.40479-.0517.58867-.16778.21436-.13531.35569-.45517.69568-.27719A1.02264,1.02264,0,0,1,66.96553,73.23671Z"/><path class="cls-6" d="M92.8314,53.00109a2.74209,2.74209,0,0,1-.20089.49385.75729.75729,0,0,1-.94392.19894,1.27988,1.27988,0,0,1-.66845-.79836c-.33918-.82366-.06057-1.73878-.38323-2.58869-.4876.27921-.90452.90005-1.56243.34482l.00459.00434a.84743.84743,0,0,1-.28115-.28147l.00444.0049a1.08472,1.08472,0,0,1,.06247-1.44237,10.068,10.068,0,0,1,2.44333-2.15759.90975.90975,0,0,0,.111-.00272c.644-.20824,1.14751-.04543,1.225.54588a22.57744,22.57744,0,0,1,.29717,5.35185A1.1731,1.1731,0,0,1,92.8314,53.00109Z"/><path class="cls-10" d="M92.8314,53.00109c-.007-.34572-.00637-.6918-.02254-1.03708-.04825-1.02981-.09683-2.05967-.15848-3.08873-.02447-.40831-.0983-.81364-.12341-1.22195a.81489.81489,0,0,0-.83344-.876c-.09167-.00657-.18422-.00073-.27637-.00062.05048-.089.07853-.21678.15489-.261a2.49343,2.49343,0,0,0,1.37092-1.9972c.01637-.17976.10776-.23045.2647-.22305a6.96826,6.96826,0,0,1,.43941,2.25422,36.815,36.815,0,0,0,.5612,4.24484,3.29516,3.29516,0,0,1-.31892.42785,3.66384,3.66384,0,0,0-.66976,1.17086A5.1582,5.1582,0,0,1,92.8314,53.00109Z"/><path class="cls-10" d="M106.49588,37.92178c.08913.07722.24217.14379.25708.23337a1.83115,1.83115,0,0,1-.53864,1.55823c-.28237.31653-.59089.60963-.88561.91525-.07513.07791-.20459.16518-.20262.24551.01124.45527-.311.3538-.56823.36805l-.00044-.00006a.89459.89459,0,0,1-.20725-.49522.91335.91335,0,0,0-.33234-.50463,2.52157,2.52157,0,0,0-2.11893.02321,3.87724,3.87724,0,0,1-1.55747-.182c-.43323-.12374-.53046-.41489-.24419-.7801a1.45489,1.45489,0,0,1,1.04417-.71718,30.54048,30.54048,0,0,1,4.3839.04371c.12323.34467.12323.34467-.45389.39627.8933.0988.8933.0988,1.42375-1.10372Z"/><path class="cls-6" d="M94.20828,50.79455a2.09237,2.09237,0,0,1-.448-1.17375,36.02308,36.02308,0,0,0-.51247-4.29941,4.79479,4.79479,0,0,1-.04014-1.0259c.171-.90607.8452-1.13169,1.675-.56049a2.11106,2.11106,0,0,1,.46106,1.33651c.09048,1.32322.22707,2.64165.39877,3.95622a2.23293,2.23293,0,0,1-.15665,1.07076C95.28,50.81479,94.91267,51.00039,94.20828,50.79455Z"/><path class="cls-6" d="M57.95305,88.57439c-.662,1.03233-.86143,1.06375-1.76669.27835a1.68438,1.68438,0,0,1-.3341-1.22853,2.3741,2.3741,0,0,0-.79519-2.24724l-.11889-.25893a.47927.47927,0,0,1-.01122-.5549l-.00331.00483a2.72172,2.72172,0,0,0,.97968-2.46189.5767.5767,0,0,1,.14433-.44467q.17509-.156.35015-.312a.79176.79176,0,0,1,1.26892.09945c.05268.06673.101.13689.15136.20546a1.42812,1.42812,0,0,1,.18792.78809c.01323.24295.02444.5581-.28414.61979-.30638.06125-.31063-.26488-.41026-.45277-.13017-.23843.01549-.72732-.3853-.6908-.35528.03238-.27889.46965-.2944.75677-.01984.36732-.00981.7362-.0061,1.10425.004.401-.08426.72787-.5315.84919-.15379.04172-.32329.126-.301.32381.01712.15177.16777.21535.30175.247.41658.09835.48118.41249.55094.77432a17.508,17.508,0,0,1,.13928,2.06228c.01938.26312.02738.7084.49436.29677a6.33982,6.33982,0,0,0,.09666-1.28556c.02839-.182.058-.39837.26145-.43629.26216-.04888.33393.191.3962.38151A1.95868,1.95868,0,0,1,57.95305,88.57439Z"/><path class="cls-10" d="M84.90143,61.17383c.18513-.2029.36766-.40823.55583-.60826.75388-.8014,1.50353-1.60693,2.267-2.3991.38333-.39774.26028-.84242.16066-1.28592-.337-1.50013-.68367-2.99808-1.02106-4.49812a1.65874,1.65874,0,0,1-.00573-.34427c.16719.10079.426.16392.48555.309.24195.58955.42726,1.20277.62473,1.8101a3.27106,3.27106,0,0,1,.28779,1.57139c.41636.38051.21972.883.26933,1.33784a2.22051,2.22051,0,0,1-.59761,1.55133c-.28486.401-.52466.83376-.79676,1.24425-.10846.16364-.23861.42214-.37879.436-.53172.05262-.71774.68-1.24724.69465C85.373,61.28376,85.11214,61.14511,84.90143,61.17383Z"/><path class="cls-10" d="M95.58582,50.09849c-.09581-.88058-.19784-1.76055-.28531-2.642-.06074-.612-.08669-1.22771-.15516-1.83872-.07055-.62952-.17377-1.25537-.26271-1.88282a1.2098,1.2098,0,0,1,.79583.7431,2.536,2.536,0,0,0,1.021,1.105,1.25657,1.25657,0,0,0,.6615.08384c.20611.00353.29659.08481.28409.287-.14992.15565-.33864.08373-.516.0934a1.01933,1.01933,0,0,0-1.03544.97579,1.00792,1.00792,0,0,0,.90843,1.018c.13214.026.27586.0071.371.1324-.03072.07932-.04737.21772-.09433.22893a1.53,1.53,0,0,0-1.038.975A3.30054,3.30054,0,0,1,95.58582,50.09849Z"/><path class="cls-10" d="M57.95305,88.57439c-.045-.58707-.08752-1.17436-.13946-1.76081-.00462-.05218-.0707-.0989-.10824-.14815-.04994.06065-.141.1199-.14318.18221-.015.43435-.0004.86986-.02036,1.30383a1.66452,1.66452,0,0,1-.13456.41992,5.83347,5.83347,0,0,1-.11875-2.97172c.04048-.35562.41217-.40256.71445-.40872a14.64887,14.64887,0,0,1,2.33569.03885c.10262.03595.26322.07808.248.18546-.04863.34293-.3778.21379-.56475.29554.26458.07887.5654-.02828.83862.10528-.04729.32709-.31353.46926-.5515.61717a8.61511,8.61511,0,0,1-.9141.48687,1.89016,1.89016,0,0,0-.99383,1.03633A1.10976,1.10976,0,0,1,57.95305,88.57439Z"/><path class="cls-10" d="M66.96553,73.23671a1.28423,1.28423,0,0,0,1.0815-1.33739c-.09863-.46106.256-.65306.53989-.86479.25912-.19323.50254-.11936.57952.20255A4.74447,4.74447,0,0,1,69.409,73.2047a2.13961,2.13961,0,0,0-.14046,1.44122,1.5287,1.5287,0,0,1,.03206.92206.568.568,0,0,1-.6575-.44919,1.13023,1.13023,0,0,0-.55754-.70762c-.25028-.16656-.30745-.59912-.73371-.53362-.02914.00448-.07875-.13964-.12257-.2124C67.14271,73.5215,67.05358,73.37943,66.96553,73.23671Z"/><path class="cls-10" d="M71.527,72.09378c-.16916.07543-.18146.181-.061.31332a1.51454,1.51454,0,0,0,1.95886.07823c.05011-.04468.10837-.08021.16284-.12.06148.38822-.21183.58223-.48731.70014-.40843.17479-.71418.498-1.12232.68676a1.5022,1.5022,0,0,0-.56932.90294,1.66358,1.66358,0,0,1-.4348.63291c-.31466-.43022-.20575-.95571-.30027-1.4333-.0628-.31736-.21822-.23746-.40094-.224a2.99764,2.99764,0,0,1-.31474-1.58831c-.01071-.46683.23958-.68952.70689-.52071C70.99237,71.64011,71.397,71.66737,71.527,72.09378Z"/><path class="cls-10" d="M57.41745,82.48144c.04155.0961.07763.1951.12628.28746.04461.08468.10279.16219.155.24286a.86422.86422,0,0,0,.11586-.27571c.013-.36013.00421-.72107.00352-1.08171.32792.37016.64161.75441.98865,1.10563a1.96088,1.96088,0,0,0,.82735.61117c.27637.08615.45421.489.676.75062a.25954.25954,0,0,1-.14662.12945,1.10919,1.10919,0,0,1-.33357.033.9693.9693,0,0,1,.31733.04071c.2302.11182.26.23582.00961.36707a5.82738,5.82738,0,0,1-2.24975-.04086.725.725,0,0,1-.69676-.78352C57.21877,83.3983,57.06862,82.901,57.41745,82.48144Z"/><path class="cls-10" d="M70.97891,66.70783a1.29233,1.29233,0,0,1-.117.16757q-1.87819,1.96221-3.75877,3.92217c-.33007.34466-.6555.69377-.98305,1.04085a2.30784,2.30784,0,0,1,.99932-1.8324.29629.29629,0,0,0,.089-.09921c.4908-1.02252,1.46742-1.61192,2.16143-2.44929.2858-.34484.6907-.44456,1.00928-.70513C70.50626,66.64839,70.77475,66.71751,70.97891,66.70783Z"/><path class="cls-10" d="M76.76343,63.80435c.01448-.19637-.06959-.29852-.27291-.27845-.50723.05009-1.01425.10237-1.52136.15377a1.40127,1.40127,0,0,1,.13089-.28856c.30286-.39911.6155-.79077.92435-1.18533.014-.01785.03557-.03815.03558-.05731.00077-.82839.64491-1.39865.86572-2.143a.574.574,0,0,1,.5493-.48774,2.8663,2.8663,0,0,0-.41673,1.49265c-.05406.54792-.0092,1.10524-.01645,1.65834-.00255.19373.04582.3164.268.29145a.53845.53845,0,0,1,.03934.73925A.37946.37946,0,0,1,76.76343,63.80435Z"/><path class="cls-10" d="M62.97,74.46261a11.02215,11.02215,0,0,0,.16258,3.17586l.223-.27854c.2257.62744.06858.87553-.63643.98531a.76349.76349,0,0,1-.76034-.16347,3.77622,3.77622,0,0,0,.35693-.13573.92.92,0,0,0,.175-.14732c-.07161-.03849-.14317-.11024-.21483-.11034-.74687-.001-1.49375.00944-2.24063.01672.02264-.08407.02055-.21825.0721-.24374a1.94317,1.94317,0,0,1,.79152-.31327c.55809.01249.74144-.44336,1.06492-.7195a1.69124,1.69124,0,0,0,.57878-1.1749A2.97264,2.97264,0,0,1,62.97,74.46261Z"/><path class="cls-10" d="M78.13648,67.81686c.09413-.85182.194-1.70308.27809-2.55591.01955-.19835.02856-.34114.28595-.36375.92121-.08092,1.84056-.18306,2.76062-.27719l.05964.03353c-.581.4069-1.15108.83071-1.74747,1.21352a1.617,1.617,0,0,0-.71333.70086,10.60555,10.60555,0,0,0-.64512,1.1174C78.39109,67.75334,78.23266,67.7742,78.13648,67.81686Z"/><path class="cls-10" d="M73.58789,72.25552c-.11634-.78058-.22727-1.562-.35039-2.34154-.15478-.98-.31956-1.95848-.48-2.93762.15991.10842.42415.19054.45935.33041.09055.35978.31181.65478.41272,1.01848a14.70454,14.70454,0,0,0,.291,1.62394,3.84809,3.84809,0,0,1,.215,1.48807A.76711.76711,0,0,1,73.58789,72.25552Z"/><path class="cls-10" d="M60.29277,79.71815a3.304,3.304,0,0,1,.50207-.12853c.58732-.05852,1.17659-.09711,1.76468-.14824.23606-.02054.41558.01131.38961.314-.03688.42986-.07891.85964-.10042,1.29036-.01937.388-.01407.77727-.01965,1.166-.09806-.03954-.27118-.06363-.28293-.12091a3.72362,3.72362,0,0,0-1.40387-1.92261,1.542,1.542,0,0,0-.33393-.16692C60.635,79.90964,60.46449,79.8128,60.29277,79.71815Z"/><path class="cls-10" d="M81.32463,62.811c-.76125.09288-1.524.1752-2.283.28395-.29586.0424-.37151-.08214-.347-.33534q.07835-.81074.16275-1.62087c.03689-.35832.07693-.71633.11555-1.07447.04926.06611.14666.13745.14016.19753a1.76534,1.76534,0,0,0,.45272,1.20423,2.39984,2.39984,0,0,0,1.59758,1.10168C81.2323,62.5838,81.27158,62.72686,81.32463,62.811Z"/><path class="cls-10" d="M66.95925,77.35079c-.5414.0527-1.08317.10186-1.6241.15906s-.606.011-.60492-.51185c.00121-.57285.01579-1.14568.02455-1.71851.11889.08768.08269-.39908.2639-.07211a1.81839,1.81839,0,0,0,.19917.38523A4.18685,4.18685,0,0,0,66.852,76.99022C66.91945,77.012,66.925,77.226,66.95925,77.35079Z"/><path class="cls-6" d="M97.37305,48.17357c-.87355.077-1.16141-.10233-1.39492-.80326a1.07606,1.07606,0,0,1,.29293-1.16938.88819.88819,0,0,1,1.103-.27039.68709.68709,0,0,0,.271.02348l-.00369-.00411a.75318.75318,0,0,1,.28234.29223l.11509.12337c.10426.06882.07858.209.15926.29072C98.24541,47.33762,98.13524,47.93318,97.37305,48.17357Z"/><path class="cls-6" d="M70.38183,73.64511l.15093-.54409a2.15323,2.15323,0,0,1,.27261.56733c.08281.53579.11582,1.0793.16859,1.61975-.14373.609-.57652.75305-1.12963.70351-.31849.17841-.28953-.15557-.40565-.27559l-.13813-.148a4.56859,4.56859,0,0,1-.269-1.94806c.00965-.14232.18-.27372.27627-.41016.38442.29242.26828.756.38588,1.13928.047.15321.04729.3185.08783.474.04608.17678.088.41376.316.38386.2704-.03549.23905-.29464.2307-.49879C70.3137,74.35169,70.11976,73.98747,70.38183,73.64511Z"/><path class="cls-10" d="M64.73949,81.94854A9.91264,9.91264,0,0,0,64.6036,79.635c-.08154-.26188.1046-.34725.35777-.34568.66339.00411,1.32692-.01028,1.99039-.0173-.28306.29557-.47333.709-.9578.7498-.03768.00316-.10108.04725-.10312.07586-.03693.5166-.49813.70908-.77433,1.04357-.07533.09123-.04429.26306-.1.37977A3.65658,3.65658,0,0,1,64.73949,81.94854Z"/><path class="cls-10" d="M89.07248,50.65165c.82745.30812,1.21256-.36837,1.74389-.85442a14.345,14.345,0,0,1,.20177,3.09829c-.2466-.64429-.86357-.954-1.2832-1.44C89.50969,51.19467,89.11812,51.06049,89.07248,50.65165Z"/><path class="cls-10" d="M55.05707,85.377a1.70473,1.70473,0,0,0,.51031.31731c.43721.08352.4755.3463.483.72247.01612.81257.08733,1.62406.136,2.436-.4095-.06471-.48968-.38859-.58011-.71746-.07543-.27427-.21269-.53457-.26287-.81187a2.32235,2.32235,0,0,0-.21891-.806C54.95794,86.21739,55.06782,85.76365,55.05707,85.377Z"/><path class="cls-10" d="M91.30616,46.77946c-.70491.67768-1.39448,1.3724-2.12,2.02719a1.22091,1.22091,0,0,0-.38578,1.57277c-.09193-.04931-.26025-.09314-.26423-.14876a2.05586,2.05586,0,0,1,.53477-1.94421,2.03676,2.03676,0,0,0,.28093-.42739c.11094-.16047.204-.41056.35236-.45236a2.60737,2.60737,0,0,0,.81109-.53456C90.704,46.7367,91.03735,46.80311,91.30616,46.77946Z"/><path class="cls-10" d="M74.96849,65.30978c.45061-.0377.90195-.06858,1.35156-.11587.2397-.02522.34608.06093.32229.30253q-.087.88272-.17324,1.76552c-.12388-.03352-.34064-.042-.35748-.1044A7.71775,7.71775,0,0,0,74.96849,65.30978Z"/><path class="cls-6" d="M60.32131,84.551c-.346-.04292-.69306-.07961-1.03727-.1341-.06744-.01069-.124-.09033-.18556-.13817.06557-.0445.129-.12351.19708-.12768.33751-.02061.67622-.02148,1.01451-.0293a1.90506,1.90506,0,0,1,.62656.17657c.62241.45433.58986.87342-.07613,1.51775a1.36048,1.36048,0,0,1-1.45872-.25842c.22981-.00841.46159-.00142.6888-.03032a3.36714,3.36714,0,0,0,.49262-.1368A.6805.6805,0,0,0,60.32131,84.551Z"/><path class="cls-10" d="M56.04767,81.66141c-.00334.66263-.00557,1.32526-.01085,1.98788-.00122.15429.01359.28485-.19417.37542a8.01527,8.01527,0,0,0-.919.54326,13.98421,13.98421,0,0,1,.36757-1.501A4.63,4.63,0,0,1,56.04767,81.66141Z"/><path class="cls-10" d="M69.43868,75.716l.40565.27559C69.5109,76.19187,69.47559,76.16788,69.43868,75.716Z"/><path class="cls-10" d="M54.927,84.56314l.01122.5549C54.701,84.9378,54.71454,84.75249,54.927,84.56314Z"/><path class="cls-10" d="M88.79592,50.37452l.28115.28147C88.86841,50.6772,88.77623,50.58183,88.79592,50.37452Z"/><path class="cls-10" d="M97.9237,46.24214l-.28234-.29223C97.8603,45.92648,97.94388,46.0341,97.9237,46.24214Z"/><path class="cls-10" d="M86.86184,52.04236l-.1594-.28157Z"/><path class="cls-10" d="M98.19805,46.65623l-.15926-.29072Z"/><path class="cls-9" d="M105.67867,38.776c-1.474-.0096-2.9481-.01493-4.422-.033a.71979.71979,0,0,0-.60954.24541c-.21976.25385-.45779.49185-.74054.79257a8.42454,8.42454,0,0,0,2.17145.353,2.67623,2.67623,0,0,1,1.86045.17624.4469.4469,0,0,1,.29213.56082.69309.69309,0,0,1-.65822.52277,6.47366,6.47366,0,0,1-1.5773-.15052c-.63883-.08707-1.28387-.09544-1.92067-.208a1.53668,1.53668,0,0,0-1.65517.57709,1.8913,1.8913,0,0,1-.80173.64263.60462.60462,0,0,1-.75064-.162.56319.56319,0,0,1-.01382-.705,1.62242,1.62242,0,0,1,.29712-.38053c1.71669-1.64123,3.24042-3.47007,4.95941-5.109a2.18883,2.18883,0,0,1,.53966-.42745.57815.57815,0,0,1,.83616.22432c.17436.319.04842.5774-.30483.7029l-1.32816,1.37512,3.81233.14457c.36741-.14436.51229.08436.52971.37657C106.21359,38.61583,106.09578,38.87964,105.67867,38.776Z"/><path class="cls-6" d="M103.18057,36.39829c.06245-.09643.16214-.18707.17821-.29071a.62521.62521,0,0,0-.047-.42726.37716.37716,0,0,0-.54016-.12,3.21642,3.21642,0,0,0-.47448.39192q-2.54823,2.63124-5.088,5.27066a1.38483,1.38483,0,0,0-.22253.263c-.10016.17784-.20747.35359-.00436.55524a.41123.41123,0,0,0,.60988.04994c.10972-.08185.226-.1562.32838-.24635a1.7093,1.7093,0,0,0,.33981-.343c.49388-.791,1.25835-.72813,2.021-.6483.63508.06646,1.26714.16224,1.90039.246.2942.03892.58708.0925.88242.11646a1.629,1.629,0,0,0,.68133-.01845.70152.70152,0,0,0,.357-.44192c.0211-.08433-.19941-.30919-.33917-.33984-.55561-.12186-1.12249-.19226-1.68519-.28172-.0462-.0469-.09375-.09256-.13822-.141-.04126-.045-.07926-.09293-.11871-.13957.04793-.03415.09807-.10054.14344-.09742.42521.02917.849.09062,1.27434.10374.979.03021,1.32076.37833,1.31855,1.38243a2.17121,2.17121,0,0,1-2.00269.36888c-.9673-.1162-1.93289-.24763-2.89769-.38333a.98025.98025,0,0,0-.95311.40314,7.79368,7.79368,0,0,1-.82674.83136.96146.96146,0,0,1-1.2437-.07093.68555.68555,0,0,1-.16218-.872,2.96059,2.96059,0,0,1,.48974-.7373c1.31473-1.34379,2.6507-2.66673,3.96819-4.00784.44905-.45711.85107-.96048,1.3-1.41778a.92786.92786,0,0,1,1.23812-.20493.80664.80664,0,0,1,.09878,1.3309C103.4221,36.5814,103.26709,36.61818,103.18057,36.39829Z"/><path class="cls-6" d="M105.67867,38.776c.25394-.03657.4175-.16424.41372-.4385-.00379-.27543-.17036-.39677-.42765-.41951a3.675,3.675,0,0,0-.57034-.12168,3.6046,3.6046,0,0,1-1.04848-.13313,3.83471,3.83471,0,0,1,.61643-.15959c.296-.02822.59778.00742.89489-.01421a1.02657,1.02657,0,0,1,.93793.43305c.00559.1834.02095.36713.01485.55015a.82918.82918,0,0,1-.89034.823c-.38351-.027-.76513-.0842-1.14636-.13688-.05632-.00778-.10587-.06473-.15855-.09893.05622-.05337.10977-.14923.16908-.15294.29694-.01855.596-.0036.893-.021A1.11393,1.11393,0,0,0,105.67867,38.776Z"/><path class="cls-9" d="M85.69492,53.41832a1.0316,1.0316,0,0,0-.23.117c-1.12823,1.14955-2.25041,2.30509-3.38245,3.45084a2.5582,2.5582,0,0,1-.64547.50549.61528.61528,0,0,1-.48325-.08113.29915.29915,0,0,1-.07021-.47628,3.74033,3.74033,0,0,1,.28506-.38343q2.04174-2.10634,4.09216-4.20429a2.19109,2.19109,0,0,1,.36405-.31386c.42035-.27266.67864-.17888.80638.312.15495.59547.28277,1.19807.41918,1.79829.22224.978.43609,1.95793.66567,2.93417a.96716.96716,0,0,1-.236.95409q-1.21507,1.274-2.4367,2.54177a.73226.73226,0,0,1-.33347.23509.787.787,0,0,1-.49113-.056.29535.29535,0,0,1-.09266-.47053c.13792-.18106.26454-.37272.41795-.53963q.98042-1.06676,1.97714-2.11839a.60054.60054,0,0,0,.17773-.661C86.20057,55.80026,85.96258,54.62253,85.69492,53.41832Z"/><path class="cls-9" d="M61.95874,78.18177a5.5816,5.5816,0,0,0,.80814-.04492c.60011-.11809.59734-.1322.58863-.77692.0061-.667.00488-1.33413.02274-2.00079a1.37013,1.37013,0,0,1,.11083-.59624c.08282-.1537.27514-.34247.42255-.3454a.41669.41669,0,0,1,.41253.4586c.00025.368.005.736.00607,1.104.0016.552.005,1.104.00062,1.656-.00159.20089.08046.29714.2842.28659.50277-.026,1.00556-.05179,1.50849-.07445a5.78448,5.78448,0,0,1,1.02173-.023c.23346.03158.52157.15921.47805.48589a.51514.51514,0,0,1-.54122.433q-.99132.07251-1.98271.144c-.11453.00818-.22949.01049-.34425.01551-.12.10429-.31917-.02309-.41807.14306l-.0186.80137c-.17335.7406.02369,1.49855-.10481,2.24124a.42714.42714,0,0,1-.54525.38474c-.28462-.05217-.32284-.28946-.32286-.53252-.00008-.82888-.01278-1.65809.00723-2.48649.008-.33045-.09074-.4531-.429-.42625-.79861.06337-1.59917.10238-2.399.14939-.13765.00808-.27584.00892-.4138.00976-.25213.00155-.45923-.06638-.50213-.35695-.03994-.27044.09768-.45523.43416-.49779.52118-.066,1.047-.09549,1.571-.13818C61.72852,78.1856,61.84381,78.1859,61.95874,78.18177Z"/><path class="cls-10" d="M64.21366,82.08921c-.00749-.65231-.02025-1.30464-.01667-1.95689a.831.831,0,0,1,.12148-.28435c.00148.64516.00774,1.29038-.0005,1.93542A1.04864,1.04864,0,0,1,64.21366,82.08921Z"/><path class="cls-10" d="M64.33707,79.04659c.0662-.26188.26476-.13621.41807-.143Z"/><path class="cls-9" d="M76.76343,63.80435c.51825-.06224.52483-.066.55581-.51566a3.23067,3.23067,0,0,0-.00938-.32855q.14367-1.32612.28795-2.65217a.39792.39792,0,0,1,.39253-.39957.3895.3895,0,0,1,.45277.32768,1.67784,1.67784,0,0,1,.0239.45614c-.05475.7977-.13126,1.59413-.17263,2.39243-.02306.44464.003.46934.45424.43242.54343-.04448,1.08245-.14055,1.62484-.20133a4.80838,4.80838,0,0,1,.953-.05187.5607.5607,0,0,1,.3849.30335c.03882.09414-.07941.30281-.18472.3943a1.02725,1.02725,0,0,1-.48822.22919c-.49458.07884-.99491.12157-1.493.1785-.173.12253-.40421-.02354-.57177.12413l-.25536.01538c-.16719.12676-.40626-.04-.561.13763a.42494.42494,0,0,0-.01982.112c-.12476.17639.00605.40307-.114.58039-.05915.59143-.11208,1.1836-.18163,1.77381a.86438.86438,0,0,1-.14462.45114.618.618,0,0,1-.44254.22792.53278.53278,0,0,1-.3338-.34806,2.06534,2.06534,0,0,1-.00447-.68551c.05339-.568.10167-1.138.1953-1.7.04052-.24323-.04435-.29625-.23583-.28375-.22675.0148-.4515.05836-.67812.0779a3.2933,3.2933,0,0,1-.81652.034.59059.59059,0,0,1-.3664-.35557c-.031-.0918.1194-.28183.23189-.37531a.99492.99492,0,0,1,.4355-.18974C76.03965,63.89647,76.40267,63.85627,76.76343,63.80435Z"/><path class="cls-10" d="M78.97366,64.49334l.57177-.12413Z"/><path class="cls-10" d="M78.15729,64.64635c.13-.27885.36774-.11735.561-.13763Z"/><path class="cls-10" d="M78.02346,65.3387l.114-.58039Z"/><path class="cls-9" d="M70.38183,73.64511c.04722.315.091.63067.14248.945.07548.46121-.08167.88543-.35588.94546-.27361.05989-.51984-.28012-.59392-.77887-.07686-.51745-.1768-1.03146-.26664-1.547-.09356-.67147-.18525-1.34321-.28191-2.01423-.02657-.1845-.14936-.24807-.278-.11443-.24857.25836-.46893.54393-.701.81822-.2695.24981-.52609.516-.81369.74285-.15408.12151-.35985.24205-.56106.05294a.53552.53552,0,0,1-.06839-.69451,1.213,1.213,0,0,1,.22749-.258q2.17772-2.26266,4.35678-4.524a3.15967,3.15967,0,0,0,.24491-.24311c.35339-.45924.81014-.13592.89852.28575q.15439.73669.27478,1.48044c.15976.99223.30646,1.98657.46149,2.97958.07854.50312-.13135.74238-.627.65227a7.72683,7.72683,0,0,1-.91389-.27976c-.36705-.15366-.73825-.29825-1.09952-.46449-.20384-.0938-.32936-.04586-.30448.17071C70.19385,72.41681,70.2935,73.03031,70.38183,73.64511Z"/><path class="cls-9" d="M91.24868,48.7469c-.5438.52711-.94329.93778-1.36919,1.3189-.282.25235-.51127.22538-.68632-.06743a.58085.58085,0,0,1-.04875-.43733,1.21913,1.21913,0,0,1,.318-.43944c.59611-.57124,1.19658-1.1384,1.81133-1.6893a.64966.64966,0,0,1,.46931-.19048.519.519,0,0,1,.3901.50817c.02879.50155.08838,1.00133.11679,1.50289.05958,1.05173.10819,2.1041.15881,3.15633a1.25684,1.25684,0,0,1-.0089.47822.69963.69963,0,0,1-.31665.3801.343.343,0,0,1-.46529-.28416,7.55653,7.55653,0,0,1-.17616-1.14715C91.36817,50.861,91.318,49.8839,91.24868,48.7469Z"/><path class="cls-9" d="M95.14968,49.4077c.00471.66575-.1794.98274-.48664.96839-.27666-.01291-.42633-.30818-.47552-.80387-.11962-1.20537-.26423-2.40824-.39358-3.61268-.05376-.50074-.10448-1.00224-.13709-1.50467a.531.531,0,0,1,.46171-.58308c.34428-.02571.437.23168.46918.48218.11358.88459.20043,1.77261.29933,2.65911.076.68129.15565,1.36214.23182,2.04341C95.13671,49.21583,95.147,49.376,95.14968,49.4077Z"/><path class="cls-9" d="M60.32131,84.551c.6388.15872.70354.36623.26189.83953-.91747-.00126-1.83518.00932-2.75226-.01-.3333-.007-.43609.10833-.42979.43591.01767.918.00612,1.83658.0061,2.75494-.10173.20971-.27882.35828-.487.23239a.92067.92067,0,0,1-.33068-.476,2.09046,2.09046,0,0,1-.02236-.54649c-.03619-.70685-.06789-1.41415-.12379-2.11951-.00757-.09545-.13314-.19351-.22394-.26515-.04317-.03406-.13457-.0002-.20156-.01189-.24916-.04347-.51448-.07318-.54246-.40893-.02459-.29517.15374-.5085.57514-.52971.35037-.01764.41831-.15034.40435-.45889-.02176-.48081-.00782-.96328-.0077-1.445a2.78743,2.78743,0,0,1,.01011-.41232.61587.61587,0,0,1,.50441-.57264c.22065-.04021.41414.22341.44987.58025.01138.11369.00436.22923.00576.34393-.00334.52532-.00059,1.05078-.01272,1.5759-.00562.24345.05309.37708.33578.38486C58.60112,84.4659,59.46109,84.513,60.32131,84.551Z"/><path class="cls-9" d="M97.0568,46.34859a.66767.66767,0,0,1,.71753.66021.77531.77531,0,0,1-.73584.74527.70432.70432,0,1,1,.01831-1.40548Z"/><path class="cls-10" d="M72.00071,71.06765c-.05937.02121-.15852.09616-.22088.07279-.63891-.23947-1.2759-.48534-1.90379-.75213-.16978-.07214-.21184-.23577-.06458-.39568.49742-.54014.99266-1.08231,1.49336-1.61939.19063-.20448.29488-.03837.32838.12109.06066.28874.07439.587.11613.88016C71.82636,69.91548,71.90947,70.45559,72.00071,71.06765Z"/></g></svg>